<svg width="150" height="150" viewBox="0 0 150 150" fill="none" xmlns="http://www.w3.org/2000/svg">
<path d="M56.6247 34.7064L24 91.0681L40.2853 14.1506C40.811 11.674 44.1439 11.2025 45.3307 13.4407L56.6247 34.7064ZM62.6403 45.9787L69.1435 58.1724L39.1743 86.5158L62.6403 45.9787ZM86.9733 41.2638L77.2726 50.4768L69.0351 34.9774L74.3082 25.9053C75.3813 24.0573 78.0693 24.1223 79.0556 26.0191L86.9733 41.2638ZM124.746 109.494L77.0558 137.241C76.2429 137.783 75.2674 138 74.3461 138C73.4249 138 72.4494 137.783 71.6365 137.295L28.0103 112.095L111.29 33.1727C112.867 31.6769 115.468 32.5549 115.826 34.6955L127.348 103.912C127.727 106.134 126.697 108.356 124.746 109.494Z" fill="#F1C12E"/>
</svg>
