<svg width="490" height="490" viewBox="0 0 490 490" fill="none" xmlns="http://www.w3.org/2000/svg">
<rect width="490" height="490" fill="white"/>
<path d="M401.445 54H88.555C69.471 54 54 69.471 54 88.555V401.444C54 420.529 69.471 436 88.555 436H401.444C420.529 436 436 420.529 436 401.444V88.555C436 69.471 420.529 54 401.445 54ZM172.207 383.844C172.207 389.398 167.705 393.9 162.151 393.9H119.345C113.791 393.9 109.289 389.398 109.289 383.844V204.403C109.289 198.849 113.791 194.347 119.345 194.347H162.151C167.705 194.347 172.207 198.849 172.207 204.403V383.844ZM140.748 177.432C118.289 177.432 100.082 159.225 100.082 136.766C100.082 114.307 118.289 96.1 140.748 96.1C163.207 96.1 181.414 114.307 181.414 136.766C181.414 159.225 163.208 177.432 140.748 177.432ZM395.91 384.654C395.91 389.76 391.77 393.9 386.664 393.9H340.73C335.624 393.9 331.484 389.76 331.484 384.654V300.486C331.484 287.93 335.167 245.465 298.671 245.465C270.362 245.465 264.62 274.531 263.467 287.575V384.654C263.467 389.76 259.328 393.9 254.221 393.9H209.795C204.689 393.9 200.549 389.76 200.549 384.654V203.593C200.549 198.487 204.689 194.347 209.795 194.347H254.221C259.327 194.347 263.467 198.487 263.467 203.593V219.248C273.964 203.495 289.564 191.336 322.779 191.336C396.331 191.336 395.91 260.052 395.91 297.808V384.654Z" fill="#0077B7"/>
</svg>
