<svg width="490" height="490" viewBox="0 0 490 490" fill="none" xmlns="http://www.w3.org/2000/svg">
<rect width="490" height="490" fill="white"/>
<g clip-path="url(#clip0)">
<path d="M191.781 361.142C189.125 361.637 187.965 362.883 188.298 364.871C188.629 366.86 190.121 367.524 192.774 366.86C195.429 366.198 196.589 365.035 196.255 363.378C195.926 361.556 194.434 360.808 191.781 361.142Z" fill="black"/>
<path d="M177.605 363.133C174.951 363.133 173.625 364.04 173.625 365.868C173.625 368.023 175.036 368.932 177.853 368.601C180.506 368.601 181.834 367.689 181.834 365.868C181.834 363.715 180.423 362.8 177.605 363.133Z" fill="black"/>
<path d="M158.206 362.382C157.544 364.206 158.623 365.447 161.439 366.113C163.926 367.104 165.502 366.608 166.164 364.62C166.662 362.799 165.584 361.476 162.931 360.641C160.443 359.98 158.869 360.552 158.206 362.382Z" fill="black"/>
<path d="M414.984 75.0131C400.974 61.0052 384.108 54 364.374 54H125.625C105.896 54 89.0244 61.0052 75.0131 75.0131C61.0052 89.0235 54 105.895 54 125.625V364.377C54 384.107 61.0052 400.977 75.0131 414.985C89.0235 428.996 105.896 436.001 125.625 436.001H181.333C184.977 436.001 187.715 435.875 189.538 435.632C191.361 435.381 193.183 434.302 195.008 432.394C196.834 430.489 197.743 427.711 197.743 424.064C197.743 423.57 197.699 417.927 197.618 407.151C197.533 396.371 197.492 387.834 197.492 381.532L191.772 382.528C188.125 383.19 183.523 383.482 177.969 383.398C172.416 383.314 166.653 382.736 160.686 381.658C154.714 380.578 149.162 378.092 144.022 374.199C138.884 370.3 135.237 365.203 133.081 358.904L130.593 353.18C128.936 349.371 126.326 345.141 122.76 340.503C119.195 335.858 115.59 332.707 111.943 331.05L110.201 329.806C109.042 328.977 107.964 327.978 106.969 326.819C105.975 325.656 105.229 324.494 104.732 323.337C104.234 322.174 104.647 321.22 105.975 320.472C107.302 319.727 109.704 319.358 113.187 319.358L118.159 320.103C121.476 320.765 125.578 322.753 130.471 326.071C135.361 329.386 139.382 333.696 142.532 339C146.348 345.8 150.944 350.977 156.335 354.543C161.722 358.111 167.153 359.894 172.624 359.894C178.094 359.894 182.819 359.479 186.8 358.653C190.776 357.822 194.507 356.576 197.99 354.918C199.483 343.811 203.545 335.267 210.175 329.3C200.726 328.304 192.229 326.814 184.683 324.822C177.141 322.831 169.348 319.6 161.307 315.122C153.264 310.645 146.591 305.094 141.286 298.458C135.981 291.822 131.627 283.118 128.231 272.345C124.833 261.565 123.133 249.129 123.133 235.037C123.133 214.977 129.685 197.897 142.782 183.806C136.646 168.719 137.226 151.809 144.522 133.072C149.33 131.579 156.461 132.699 165.91 136.43C175.361 140.164 182.281 143.356 186.677 146.005C191.072 148.655 194.594 150.895 197.247 152.721C212.67 148.41 228.585 146.255 244.998 146.255C261.41 146.255 277.328 148.41 292.752 152.721L302.202 146.753C308.671 142.772 316.296 139.125 325.084 135.81C333.872 132.495 340.585 131.582 345.23 133.075C352.688 151.812 353.355 168.721 347.215 183.807C360.313 197.901 366.866 214.98 366.866 235.04C366.866 249.134 365.166 261.612 361.768 272.469C358.373 283.329 353.982 292.037 348.589 298.585C343.202 305.135 336.486 310.644 328.446 315.124C320.404 319.598 312.611 322.835 305.066 324.821C297.522 326.812 289.026 328.308 279.576 329.304C288.192 336.762 292.502 348.53 292.502 364.616V424.057C292.502 426.876 292.913 429.154 293.742 430.895C294.577 432.636 295.901 433.834 297.724 434.503C299.555 435.165 301.164 435.578 302.577 435.743C303.99 435.909 306.017 435.993 308.67 435.993H364.378C384.106 435.993 400.979 428.988 414.983 414.977C428.994 400.967 435.999 384.094 435.999 364.366V125.625C435.997 105.895 428.992 89.0209 414.984 75.0131Z" fill="black"/>
<path d="M129.604 332.044C128.444 332.87 128.61 334.197 130.102 336.021C131.762 337.678 133.087 337.928 134.083 336.766C135.242 335.94 135.077 334.613 133.582 332.786C131.925 331.296 130.599 331.046 129.604 332.044Z" fill="black"/>
<path d="M121.399 325.827C120.902 326.99 121.483 327.985 123.14 328.811C124.465 329.643 125.546 329.479 126.373 328.316C126.869 327.153 126.289 326.158 124.632 325.326C122.974 324.828 121.896 324.995 121.399 325.827Z" fill="black"/>
<path d="M137.315 341.745C135.821 342.571 135.821 344.067 137.315 346.22C138.808 348.378 140.214 348.956 141.543 347.96C143.036 346.798 143.036 345.223 141.543 343.233C140.218 341.083 138.808 340.579 137.315 341.745Z" fill="black"/>
<path d="M146.022 352.932C144.529 354.261 144.858 355.83 147.017 357.66C149.003 359.645 150.662 359.895 151.989 358.4C153.316 357.077 152.984 355.503 150.994 353.679C149.007 351.693 147.348 351.442 146.022 352.932Z" fill="black"/>
</g>
<defs>
<clipPath id="clip0">
<rect width="382" height="382" fill="white" transform="translate(54 54)"/>
</clipPath>
</defs>
</svg>
