<svg width="490" height="490" viewBox="0 0 490 490" fill="none" xmlns="http://www.w3.org/2000/svg">
<rect width="490" height="490" fill="white"/>
<path d="M77.875 79.9919C47.8562 111.173 54 144.295 54 244.92C54 328.483 39.4204 412.252 115.725 431.973C139.552 438.101 350.671 438.101 374.466 431.941C406.236 423.744 432.085 397.975 435.618 353.042C436.111 346.771 436.111 143.181 435.602 136.783C431.846 88.9212 402.384 61.3376 363.563 55.7508C354.666 54.4616 352.883 54.0796 307.234 54C145.314 54.0796 109.82 46.8693 77.875 79.9919V79.9919Z" fill="url(#paint0_linear)"/>
<path d="M244.968 103.962C187.175 103.962 132.294 98.8213 111.332 152.62C102.673 174.839 103.931 203.696 103.931 245.016C103.931 281.274 102.769 315.352 111.332 337.396C132.246 391.226 187.573 386.069 244.936 386.069C300.279 386.069 357.34 391.831 378.557 337.396C387.231 314.954 385.958 286.527 385.958 245.016C385.958 189.912 388.998 154.339 362.274 127.63C335.216 100.572 298.623 103.962 244.905 103.962H244.968ZM232.33 129.381C352.883 129.19 368.227 115.789 359.759 301.966C356.751 367.813 306.613 360.587 244.984 360.587C132.612 360.587 129.381 357.372 129.381 244.952C129.381 131.228 138.295 129.445 232.33 129.35V129.381ZM320.254 152.795C310.911 152.795 303.335 160.371 303.335 169.714C303.335 179.057 310.911 186.634 320.254 186.634C329.597 186.634 337.173 179.057 337.173 169.714C337.173 160.371 329.597 152.795 320.254 152.795V152.795ZM244.968 172.579C204.97 172.579 172.547 205.017 172.547 245.016C172.547 285.015 204.97 317.437 244.968 317.437C284.967 317.437 317.373 285.015 317.373 245.016C317.373 205.017 284.967 172.579 244.968 172.579V172.579ZM244.968 197.998C307.123 197.998 307.202 292.034 244.968 292.034C182.83 292.034 182.734 197.998 244.968 197.998Z" fill="white"/>
<defs>
<linearGradient id="paint0_linear" x1="78.6075" y1="411.601" x2="433.636" y2="104.328" gradientUnits="userSpaceOnUse">
<stop stop-color="#FFDD55"/>
<stop offset="0.5" stop-color="#FF543E"/>
<stop offset="1" stop-color="#C837AB"/>
</linearGradient>
</defs>
</svg>
