<svg width="300" height="300" viewBox="0 0 300 300" fill="none" xmlns="http://www.w3.org/2000/svg">
<rect width="300" height="300" rx="150" fill="#606060"/>
<path d="M144.189 192.727C139.707 198.094 133.371 202.272 125.181 205.261C116.991 208.194 107.915 209.66 97.9541 209.66C87.4951 209.66 78.3089 207.391 70.3955 202.854C62.5374 198.26 56.4502 191.62 52.1338 182.932C47.8727 174.243 45.6868 164.034 45.5762 152.302V144.084C45.5762 132.02 47.596 121.589 51.6357 112.79C55.7308 103.936 61.5967 97.1846 69.2334 92.5361C76.9255 87.8324 85.918 85.4805 96.2109 85.4805C110.544 85.4805 121.75 88.9115 129.829 95.7734C137.909 102.58 142.695 112.513 144.189 125.573H119.951C118.844 118.656 116.382 113.592 112.563 110.383C108.8 107.173 103.599 105.568 96.958 105.568C88.4912 105.568 82.0443 108.75 77.6172 115.114C73.1901 121.478 70.9489 130.941 70.8936 143.503V151.223C70.8936 163.895 73.3008 173.469 78.1152 179.943C82.9297 186.418 89.9854 189.655 99.2822 189.655C108.634 189.655 115.303 187.663 119.287 183.679V162.844H96.626V144.499H144.189V192.727ZM164.443 208V87.1406H206.777C221.442 87.1406 232.565 89.9629 240.146 95.6074C247.728 101.197 251.519 109.414 251.519 120.261C251.519 126.182 249.997 131.411 246.953 135.949C243.91 140.432 239.676 143.724 234.253 145.827C240.451 147.377 245.321 150.503 248.862 155.207C252.459 159.911 254.258 165.666 254.258 172.473C254.258 184.094 250.55 192.893 243.135 198.869C235.719 204.846 225.15 207.889 211.426 208H164.443ZM189.346 155.373V187.995H210.679C216.545 187.995 221.11 186.612 224.375 183.845C227.695 181.022 229.355 177.149 229.355 172.224C229.355 161.156 223.628 155.539 212.173 155.373H189.346ZM189.346 137.775H207.773C220.335 137.554 226.616 132.546 226.616 122.751C226.616 117.272 225.011 113.343 221.802 110.964C218.647 108.529 213.639 107.312 206.777 107.312H189.346V137.775Z" fill="#FED85B"/>
</svg>
