<svg width="60" height="60" viewBox="0 0 60 60" fill="none" xmlns="http://www.w3.org/2000/svg">
<path d="M29.7946 4.7998C15.66 4.7998 4.20001 16.2598 4.20001 30.3944C4.20001 42.3876 12.4585 52.4228 23.5922 55.1998C23.4727 54.8543 23.396 54.4533 23.396 53.9563V49.5818C22.3572 49.5818 20.6168 49.5818 20.1796 49.5818C18.4285 49.5818 16.8715 48.8289 16.1164 47.4297C15.2782 45.8748 15.1332 43.4967 13.0557 42.0421C12.4393 41.5579 12.9086 41.0055 13.6188 41.0801C14.9305 41.4513 16.0183 42.3513 17.0421 43.6865C18.0616 45.0238 18.5415 45.3267 20.4462 45.3267C21.3697 45.3267 22.7518 45.2734 24.0529 45.0686C24.7525 43.2919 25.9618 41.656 27.4399 40.8839C18.9169 40.0073 14.8495 35.7671 14.8495 30.0105C14.8495 27.5321 15.9053 25.1347 17.699 23.1149C17.1104 21.11 16.3702 17.0212 17.9251 15.4642C21.76 15.4642 24.0785 17.9512 24.6352 18.623C26.5462 17.9682 28.645 17.5971 30.8504 17.5971C33.06 17.5971 35.1673 17.9682 37.0827 18.6273C37.6329 17.9597 39.9535 15.4642 43.797 15.4642C45.3582 17.0234 44.6096 21.1292 44.0145 23.1298C45.7976 25.1454 46.847 27.5363 46.847 30.0105C46.847 35.7629 42.786 40.0009 34.2758 40.8818C36.6177 42.1039 38.3261 45.5379 38.3261 48.125V53.9563C38.3261 54.1782 38.2771 54.3381 38.2515 54.528C48.2248 51.0322 55.3892 41.5622 55.3892 30.3944C55.3892 16.2598 43.9292 4.7998 29.7946 4.7998Z" fill="#0085FF"/>
</svg>
