<svg width="150" height="150" viewBox="0 0 150 150" fill="none" xmlns="http://www.w3.org/2000/svg">
<path d="M130.008 12H20.0039C15.5859 12 12 15.5859 12 20.0039V129.996C12 134.414 15.5859 138 20.0039 138H129.996C134.414 138 138 134.414 138 130.008V20.0039C138 15.5859 134.414 12 130.008 12ZM81 108.551C81 120.539 73.9688 126 63.7031 126C54.4219 126 47.7305 119.777 45 114L54.4336 108.293C56.25 111.516 59.0156 114 63 114C66.8086 114 69 112.512 69 106.723V69H81L81 108.551ZM107.027 126C96.3984 126 90.3633 120.645 87 114L96 108C98.4492 112.008 101.121 115.84 106.77 115.84C111.516 115.84 114 113.473 114 110.191C114 106.277 111.422 104.883 106.207 102.598L103.348 101.367C95.0859 97.8516 89.5898 93.4453 89.5898 84.1172C89.5898 75.5391 96.1406 69 106.359 69C113.637 69 118.863 71.5312 122.637 78.1641L113.73 83.8945C111.762 80.3672 109.652 78.9844 106.359 78.9844C103.008 78.9844 100.887 81.1172 100.887 83.8945C100.887 87.3281 103.008 88.711 107.918 90.8438L110.777 92.0743C120.516 96.2344 126 100.488 126 110.051C126 120.352 117.902 126 107.027 126Z" fill="#EFD81D"/>
</svg>
