<svg width="150" height="150" viewBox="0 0 150 150" fill="none" xmlns="http://www.w3.org/2000/svg">
<path d="M84.5625 0C92.8125 19.0898 54.9844 30.8789 51.4688 46.7812C48.2461 61.3945 73.9453 78.375 73.9688 78.375C70.0664 72.3281 67.1953 67.3477 63.2812 57.9375C56.6602 42.0234 103.605 27.6211 84.5625 0ZM109.688 26.4375C109.688 26.4375 76.5 28.5703 74.8125 49.7812C74.0625 59.2266 83.543 64.1953 83.8125 71.0625C84.0352 76.6758 78.1875 81.375 78.1875 81.375C78.1875 81.375 88.8281 79.3477 92.1562 70.7812C95.8477 61.2773 84.9609 54.8555 86.0625 47.25C87.1172 39.9727 109.688 26.4375 109.688 26.4375ZM57.5625 75.4688C57.5625 75.4688 27.1875 75.0352 27.1875 83.625C27.1875 92.6016 66.9492 93.2695 95.3438 87.75C95.3438 87.75 102.891 82.5586 104.906 80.625C86.2969 84.4219 43.875 84.8438 43.875 81.5625C43.875 78.5391 57.5625 75.4688 57.5625 75.4688ZM115.969 75.4688C112.992 75.7031 109.781 76.8516 106.875 78.9375C113.719 77.4609 119.531 81.7031 119.531 86.5312C119.531 97.4062 103.781 107.625 103.781 107.625C103.781 107.625 128.156 104.859 128.156 87C128.156 78.8906 122.52 74.9531 115.969 75.4688ZM50.25 92.1562C45.5859 92.1562 38.625 95.8125 38.625 99.2812C38.625 106.254 73.6875 111.621 99.6562 101.438L90.6562 95.9062C73.0547 101.543 40.6406 99.7031 50.25 92.1562ZM54.5625 107.812C48.1758 107.812 43.9688 111.668 43.9688 114.562C43.9688 123.516 82.1133 124.418 97.2188 115.312L87.6562 109.219C76.3711 113.988 48.0469 114.715 54.5625 107.812ZM33.2812 115.875C22.875 115.664 16.125 120.34 16.125 124.219C16.125 144.844 122.625 143.895 122.625 122.812C122.625 119.309 118.582 117.609 117.094 116.812C125.801 136.969 29.9062 135.363 29.9062 123.469C29.9062 120.762 36.9609 118.172 43.5 119.438L37.9688 116.25C36.3398 116.004 34.7695 115.91 33.2812 115.875ZM133.875 129.75C117.68 145.102 76.6406 150.668 35.3438 141.188C76.6289 158.086 133.676 148.605 133.875 129.75Z" fill="#A11016"/>
</svg>
