<svg width="60" height="60" viewBox="0 0 60 60" fill="none" xmlns="http://www.w3.org/2000/svg">
<path d="M30 4.7998C16.1049 4.7998 4.8 16.1036 4.8 29.9998C4.8 43.896 16.1049 55.1998 30 55.1998C43.8951 55.1998 55.2 43.896 55.2 29.9998C55.2 16.1036 43.8951 4.7998 30 4.7998ZM22.3304 40.9563H17.9478V24.5215H22.3304V40.9563ZM20.1391 21.2346C18.9284 21.2346 17.9478 20.254 17.9478 19.0433C17.9478 17.8326 18.9284 16.852 20.1391 16.852C21.3498 16.852 22.3304 17.8326 22.3304 19.0433C22.3304 20.254 21.3498 21.2346 20.1391 21.2346ZM43.1478 40.9563H38.7652V35.4781V32.7389C38.7652 30.6298 37.0396 28.9042 34.9304 28.9042C32.8213 28.9042 31.0957 30.6298 31.0957 32.7389V40.9563H26.713V24.5215H31.0957V26.5112C32.3754 25.2819 34.1109 24.5215 36.0261 24.5215C39.9595 24.5215 43.1478 27.7099 43.1478 31.6433V40.9563Z" fill="#0085FF"/>
</svg>
