<svg width="80" height="80" viewBox="0 0 80 80" fill="none" xmlns="http://www.w3.org/2000/svg">
<path d="M78.675 27.7937L41.175 7.7937C40.8133 7.6011 40.4098 7.50037 40 7.50037C39.5902 7.50037 39.1867 7.6011 38.825 7.7937L1.32501 27.7937C0.925026 28.0069 0.590514 28.3248 0.357262 28.7134C0.12401 29.102 0.000793457 29.5467 0.000793457 30C0.000793457 30.4532 0.12401 30.8979 0.357262 31.2865C0.590514 31.6751 0.925026 31.993 1.32501 32.2062L10 36.8343V51.9656C9.99741 53.1936 10.4494 54.3791 11.2688 55.2937C15.3625 59.8531 24.5344 67.5 40 67.5C45.128 67.5424 50.2176 66.6135 55 64.7625V75C55 75.663 55.2634 76.2989 55.7322 76.7677C56.2011 77.2366 56.837 77.5 57.5 77.5C58.1631 77.5 58.7989 77.2366 59.2678 76.7677C59.7366 76.2989 60 75.663 60 75V62.3468C63.26 60.4649 66.206 58.0852 68.7313 55.2937C69.5507 54.3791 70.0026 53.1936 70 51.9656V36.8343L78.675 32.2062C79.075 31.993 79.4095 31.6751 79.6428 31.2865C79.876 30.8979 79.9992 30.4532 79.9992 30C79.9992 29.5467 79.876 29.102 79.6428 28.7134C79.4095 28.3248 79.075 28.0069 78.675 27.7937ZM40 62.5C26.4781 62.5 18.525 55.8937 15 51.9656V39.4999L38.825 52.2062C39.1867 52.3988 39.5902 52.4995 40 52.4995C40.4098 52.4995 40.8133 52.3988 41.175 52.2062L55 44.8343V59.3156C51.0625 61.1531 46.1 62.5 40 62.5ZM65 51.9531C63.5014 53.616 61.8247 55.1094 60 56.4062V42.1656L65 39.4999V51.9531ZM58.75 37.1687L58.6813 37.1281L41.1813 27.7937C40.5974 27.4955 39.9197 27.4385 39.2943 27.6352C38.6689 27.8318 38.1457 28.2662 37.8375 28.8449C37.5293 29.4236 37.4608 30.1002 37.6467 30.7289C37.8325 31.3576 38.258 31.8881 38.8313 32.2062L53.4375 40L40 47.1656L7.81251 30L40 12.8343L72.1875 30L58.75 37.1687Z" fill="white"/>
</svg>
