<svg width="80" height="80" viewBox="0 0 80 80" fill="none" xmlns="http://www.w3.org/2000/svg">
<path d="M70 20H55V17.5C55 15.5109 54.2098 13.6032 52.8033 12.1967C51.3968 10.7902 49.4891 10 47.5 10H32.5C30.5109 10 28.6032 10.7902 27.1967 12.1967C25.7902 13.6032 25 15.5109 25 17.5V20H10C8.67392 20 7.40215 20.5268 6.46447 21.4645C5.52678 22.4021 5 23.6739 5 25V60C5 61.3261 5.52678 62.5979 6.46447 63.5355C7.40215 64.4732 8.67392 65 10 65H70C71.3261 65 72.5979 64.4732 73.5355 63.5355C74.4732 62.5979 75 61.3261 75 60V25C75 23.6739 74.4732 22.4021 73.5355 21.4645C72.5979 20.5268 71.3261 20 70 20ZM30 17.5C30 16.837 30.2634 16.2011 30.7322 15.7322C31.2011 15.2634 31.837 15 32.5 15H47.5C48.163 15 48.7989 15.2634 49.2678 15.7322C49.7366 16.2011 50 16.837 50 17.5V20H30V17.5ZM70 25V35H60V32.5C60 31.837 59.7366 31.2011 59.2678 30.7322C58.7989 30.2634 58.163 30 57.5 30C56.837 30 56.2011 30.2634 55.7322 30.7322C55.2634 31.2011 55 31.837 55 32.5V35H25V32.5C25 31.837 24.7366 31.2011 24.2678 30.7322C23.7989 30.2634 23.163 30 22.5 30C21.837 30 21.2011 30.2634 20.7322 30.7322C20.2634 31.2011 20 31.837 20 32.5V35H10V25H70ZM70 60H10V40H20V42.5C20 43.163 20.2634 43.7989 20.7322 44.2678C21.2011 44.7366 21.837 45 22.5 45C23.163 45 23.7989 44.7366 24.2678 44.2678C24.7366 43.7989 25 43.163 25 42.5V40H55V42.5C55 43.163 55.2634 43.7989 55.7322 44.2678C56.2011 44.7366 56.837 45 57.5 45C58.163 45 58.7989 44.7366 59.2678 44.2678C59.7366 43.7989 60 43.163 60 42.5V40H70V60Z" fill="#E6E6E6"/>
</svg>
