<svg width="28" height="28" viewBox="0 0 28 28" fill="none" xmlns="http://www.w3.org/2000/svg">
<path fill-rule="evenodd" clip-rule="evenodd" d="M6 2C3.79086 2 2 3.79086 2 6V22C2 24.2091 3.79086 26 6 26H22C24.2091 26 26 24.2091 26 22V6C26 3.79086 24.2091 2 22 2H6ZM8.15 8.6C8.89558 8.6 9.5 7.99558 9.5 7.25C9.5 6.50442 8.89558 5.9 8.15 5.9C7.40442 5.9 6.8 6.50442 6.8 7.25C6.8 7.99558 7.40442 8.6 8.15 8.6ZM14.45 5.9C13.7044 5.9 13.1 6.50442 13.1 7.25C13.1 7.99558 13.7044 8.6 14.45 8.6H20.75C21.4956 8.6 22.1 7.99558 22.1 7.25C22.1 6.50442 21.4956 5.9 20.75 5.9H14.45ZM13.1 11.75C13.1 11.0044 13.7044 10.4 14.45 10.4H20.75C21.4956 10.4 22.1 11.0044 22.1 11.75C22.1 12.4956 21.4956 13.1 20.75 13.1H14.45C13.7044 13.1 13.1 12.4956 13.1 11.75ZM7.25 14.9C6.50442 14.9 5.9 15.5044 5.9 16.25C5.9 16.9956 6.50442 17.6 7.25 17.6H20.75C21.4956 17.6 22.1 16.9956 22.1 16.25C22.1 15.5044 21.4956 14.9 20.75 14.9H7.25ZM5.9 20.75C5.9 20.0044 6.50442 19.4 7.25 19.4H20.75C21.4956 19.4 22.1 20.0044 22.1 20.75C22.1 21.4956 21.4956 22.1 20.75 22.1H7.25C6.50442 22.1 5.9 21.4956 5.9 20.75ZM8.15 9.5C6.90736 9.5 5.9 10.5074 5.9 11.75V13.1H10.4V11.75C10.4 10.5074 9.39264 9.5 8.15 9.5Z" fill="#E6E6E6"/>
</svg>
