<svg width="80" height="80" viewBox="0 0 80 80" fill="none" xmlns="http://www.w3.org/2000/svg">
<path d="M7.5 30V52.5C7.5 53.163 7.76339 53.7989 8.23223 54.2678C8.70107 54.7366 9.33696 55 10 55H35C35.663 55 36.2989 55.2634 36.7678 55.7322C37.2366 56.2011 37.5 56.837 37.5 57.5C37.5 58.163 37.2366 58.7989 36.7678 59.2678C36.2989 59.7366 35.663 60 35 60H30V65H35C35.663 65 36.2989 65.2634 36.7678 65.7322C37.2366 66.2011 37.5 66.837 37.5 67.5C37.5 68.163 37.2366 68.7989 36.7678 69.2678C36.2989 69.7366 35.663 70 35 70H20C19.337 70 18.7011 69.7366 18.2322 69.2678C17.7634 68.7989 17.5 68.163 17.5 67.5C17.5 66.837 17.7634 66.2011 18.2322 65.7322C18.7011 65.2634 19.337 65 20 65H25V60H10C8.01088 60 6.10322 59.2098 4.6967 57.8033C3.29018 56.3968 2.5 54.4891 2.5 52.5V30C2.5 28.0109 3.29018 26.1032 4.6967 24.6967C6.10322 23.2902 8.01088 22.5 10 22.5H35C35.663 22.5 36.2989 22.7634 36.7678 23.2322C37.2366 23.7011 37.5 24.337 37.5 25C37.5 25.663 37.2366 26.2989 36.7678 26.7678C36.2989 27.2366 35.663 27.5 35 27.5H10C9.33696 27.5 8.70107 27.7634 8.23223 28.2322C7.76339 28.7011 7.5 29.337 7.5 30ZM65 20H55C54.337 20 53.7011 20.2634 53.2322 20.7322C52.7634 21.2011 52.5 21.837 52.5 22.5C52.5 23.163 52.7634 23.7989 53.2322 24.2678C53.7011 24.7366 54.337 25 55 25H65C65.663 25 66.2989 24.7366 66.7678 24.2678C67.2366 23.7989 67.5 23.163 67.5 22.5C67.5 21.837 67.2366 21.2011 66.7678 20.7322C66.2989 20.2634 65.663 20 65 20ZM65 30H55C54.337 30 53.7011 30.2634 53.2322 30.7322C52.7634 31.2011 52.5 31.837 52.5 32.5C52.5 33.163 52.7634 33.7989 53.2322 34.2678C53.7011 34.7366 54.337 35 55 35H65C65.663 35 66.2989 34.7366 66.7678 34.2678C67.2366 33.7989 67.5 33.163 67.5 32.5C67.5 31.837 67.2366 31.2011 66.7678 30.7322C66.2989 30.2634 65.663 30 65 30ZM77.5 15V65C77.5 66.3261 76.9732 67.5979 76.0355 68.5355C75.0979 69.4732 73.8261 70 72.5 70H47.5C46.1739 70 44.9021 69.4732 43.9645 68.5355C43.0268 67.5979 42.5 66.3261 42.5 65V15C42.5 13.6739 43.0268 12.4021 43.9645 11.4645C44.9021 10.5268 46.1739 10 47.5 10H72.5C73.8261 10 75.0979 10.5268 76.0355 11.4645C76.9732 12.4021 77.5 13.6739 77.5 15ZM72.5 65V15H47.5V65H72.5ZM60 52.5C59.2583 52.5 58.5333 52.7199 57.9166 53.132C57.2999 53.544 56.8193 54.1297 56.5355 54.8149C56.2516 55.5002 56.1774 56.2542 56.3221 56.9816C56.4667 57.709 56.8239 58.3772 57.3484 58.9016C57.8728 59.4261 58.541 59.7833 59.2684 59.9279C59.9958 60.0726 60.7498 59.9984 61.4351 59.7145C62.1203 59.4307 62.706 58.9501 63.118 58.3334C63.5301 57.7167 63.75 56.9917 63.75 56.25C63.75 55.2554 63.3549 54.3016 62.6516 53.5984C61.9484 52.8951 60.9946 52.5 60 52.5Z" fill="#E6E6E6"/>
</svg>
