<svg width="50" height="50" viewBox="0 0 50 50" fill="none" xmlns="http://www.w3.org/2000/svg">
<path d="M43.3359 4H6.66797C5.19531 4 4 5.19531 4 6.66797V43.332C4 44.8047 5.19531 46 6.66797 46H43.332C44.8047 46 46 44.8047 46 43.3359V6.66797C46 5.19531 44.8047 4 43.3359 4ZM27 36.1836C27 40.1797 24.6563 42 21.2344 42C18.1406 42 15.9102 39.9258 15 38L18.1445 36.0977C18.75 37.1719 19.6719 38 21 38C22.2695 38 23 37.5039 23 35.5742V23H27L27 36.1836ZM35.6758 42C32.1328 42 30.1211 40.2148 29 38L32 36C32.8164 37.3359 33.707 38.6133 35.5898 38.6133C37.1719 38.6133 38 37.8242 38 36.7305C38 35.4258 37.1406 34.9609 35.4023 34.1992L34.4492 33.7891C31.6953 32.6172 29.8633 31.1484 29.8633 28.0391C29.8633 25.1797 32.0469 23 35.4531 23C37.8789 23 39.6211 23.8438 40.8789 26.0547L37.9102 27.9649C37.2539 26.7891 36.5508 26.3281 35.4531 26.3281C34.3359 26.3281 33.6289 27.0391 33.6289 27.9649C33.6289 29.1094 34.3359 29.5703 35.9727 30.2813L36.9258 30.6914C40.1719 32.0781 42 33.4961 42 36.6836C42 40.1172 39.3008 42 35.6758 42Z" fill="#EFD81D"/>
</svg>
