<svg width="50" height="50" viewBox="0 0 50 50" fill="none" xmlns="http://www.w3.org/2000/svg">
<path fill-rule="evenodd" clip-rule="evenodd" d="M10.8659 4C8.15559 4 6.15013 6.63304 6.23989 9.4886C6.32604 12.232 6.21413 15.785 5.40824 18.6826C4.59994 21.5886 3.2329 23.4295 1 23.6658V26.3342C3.2329 26.5705 4.59994 28.4114 5.40824 31.3174C6.21413 34.215 6.32604 37.768 6.23989 40.5114C6.15013 43.3665 8.15559 46 10.8663 46H38.6377C41.348 46 43.3531 43.367 43.2633 40.5114C43.1772 37.768 43.2891 34.215 44.095 31.3174C44.9037 28.4114 46.2671 26.5705 48.5 26.3342V23.6658C46.2671 23.4295 44.9037 21.5886 44.095 18.6826C43.2891 15.7855 43.1772 12.232 43.2633 9.4886C43.3531 6.63349 41.348 4 38.6377 4H10.8655H10.8659ZM33.2034 29.8537C33.2034 33.7856 30.5611 36.1702 26.1762 36.1702H18.7119C18.4983 36.1702 18.2936 36.0761 18.1426 35.9085C17.9916 35.7409 17.9068 35.5136 17.9068 35.2766V14.7234C17.9068 14.4864 17.9916 14.2591 18.1426 14.0915C18.2936 13.9239 18.4983 13.8298 18.7119 13.8298H26.1335C29.7898 13.8298 32.1894 16.0281 32.1894 19.4033C32.1894 21.7723 30.5752 23.8933 28.5186 24.2646V24.3883C31.3183 24.7292 33.2034 26.8811 33.2034 29.8537ZM25.3623 16.6626H21.1062V23.3352H24.6908C27.4619 23.3352 28.99 22.0966 28.99 19.8827C28.99 17.8082 27.6761 16.6626 25.3623 16.6626ZM21.1062 25.983V33.3366H25.5189C28.4039 33.3366 29.9323 32.0515 29.9323 29.6365C29.9323 27.2211 28.3612 25.9825 25.3333 25.9825L21.1062 25.983Z" fill="#6B11E9"/>
</svg>
