<svg width="50" height="50" viewBox="0 0 50 50" fill="none" xmlns="http://www.w3.org/2000/svg">
<path d="M42.2381 6.2209C41.6497 7.63163 40.8964 8.96773 39.9939 10.2013C38.0236 8.22283 35.6797 6.65575 33.0984 5.59119C30.5171 4.52664 27.7499 3.98585 24.9577 4.00028C22.1656 4.01471 19.4041 4.58406 16.8339 5.67523C14.2638 6.7664 11.9362 8.35761 9.98644 10.3564C8.03672 12.3551 6.50379 14.7215 5.47678 17.318C4.44977 19.9145 3.94916 22.6892 4.00407 25.4809C4.05899 28.2725 4.66832 31.0254 5.79664 33.5795C6.92496 36.1336 8.54976 38.4379 10.5766 40.3584L11.3551 41.0457C14.3259 43.5489 17.9312 45.1815 21.7723 45.7629C25.6133 46.3442 29.5404 45.8517 33.1189 44.3398C36.6974 42.8279 39.7879 40.3555 42.0485 37.1962C44.3092 34.0368 45.6517 30.3137 45.9278 26.4387C46.5021 21.0759 44.9274 14.2887 42.2388 6.22156L42.2381 6.2209ZM13.573 40.4805C13.3489 40.7575 13.0476 40.9618 12.7073 41.0675C12.367 41.1732 12.003 41.1756 11.6613 41.0744C11.3197 40.9732 11.0157 40.7729 10.7879 40.4989C10.5601 40.2248 10.4187 39.8894 10.3816 39.535C10.3445 39.1806 10.4133 38.8232 10.5794 38.5079C10.7455 38.1926 11.0013 37.9337 11.3146 37.7639C11.6278 37.5941 11.9844 37.521 12.3393 37.5539C12.6941 37.5868 13.0312 37.7242 13.3079 37.9488C13.6785 38.2495 13.9146 38.6851 13.9643 39.1598C14.014 39.6345 13.8733 40.1095 13.573 40.4805ZM42.1515 34.1725C36.9528 41.0975 25.853 38.7607 18.7363 39.0968C18.7363 39.0968 17.4747 39.171 16.2046 39.3791C16.2046 39.3791 16.6837 39.1756 17.2962 38.9439C22.294 37.2044 24.6564 36.8696 27.6923 35.3074C33.4082 32.4015 39.0625 26.0377 40.2374 19.4225C38.0628 25.7863 31.4593 31.2587 25.4487 33.4813C21.3291 34.9995 13.8868 36.4784 13.8868 36.4784L13.5868 36.3176C8.52334 33.8561 8.36712 22.8896 17.5758 19.3529C21.6081 17.7998 25.4657 18.6525 29.8203 17.6134C34.4703 16.5087 39.8501 13.0252 42.0392 8.47893C44.4876 15.7519 47.4375 27.1352 42.1482 34.1771L42.1515 34.1725Z" fill="#68BD45"/>
</svg>
