<svg width="50" height="50" viewBox="0 0 50 50" fill="none" xmlns="http://www.w3.org/2000/svg">
<path d="M18.8749 11.5688L8 30.356L13.4284 4.71688C13.6037 3.89132 14.7146 3.73416 15.1102 4.48023L18.8749 11.5688ZM20.8801 15.3262L23.0478 19.3908L13.0581 28.8386L20.8801 15.3262ZM28.9911 13.7546L25.7575 16.8256L23.0117 11.6591L24.7694 8.6351C25.1271 8.01909 26.0231 8.04077 26.3519 8.67303L28.9911 13.7546ZM41.5822 36.498L25.6853 45.7471C25.4143 45.9277 25.0892 46 24.7821 46C24.475 46 24.1498 45.9277 23.8788 45.7652L9.33678 37.3651L37.0967 11.0576C37.6224 10.559 38.4895 10.8516 38.6087 11.5652L42.4493 34.6373C42.5757 35.378 42.2325 36.1186 41.5822 36.498Z" fill="#F1C12E"/>
</svg>
