<svg width="50" height="50" viewBox="0 0 50 50" fill="none" xmlns="http://www.w3.org/2000/svg">
<path d="M16.4074 4C15.2214 4 14.1213 4.26551 13.1469 4.8265C10.1015 6.58477 8.94229 10.8695 9.55651 16.2042C4.63048 18.3396 1.5 21.4839 1.5 25C1.5 28.5161 4.63048 31.6604 9.55651 33.7958C8.9426 39.1303 10.1015 43.4152 13.1469 45.1735C14.1194 45.7345 15.2194 46 16.4074 46C18.936 46 21.8584 44.7309 24.7937 42.5537C27.7293 44.7309 30.6553 46 33.1839 46C34.3699 46 35.47 45.7345 36.4444 45.1735C39.4898 43.4152 40.649 39.1304 40.0348 33.7958C44.959 31.6604 48.0875 28.5153 48.0875 25C48.0875 21.4839 44.957 18.3396 40.031 16.2042C40.6449 10.8697 39.486 6.58477 36.4406 4.8265C35.4681 4.26357 34.3681 4 33.1801 4C30.6515 4 27.7291 5.26906 24.7938 7.44629C21.8583 5.26906 18.9351 4 16.4074 4ZM16.4074 7.397C17.9246 7.397 19.9311 8.20376 22.1095 9.69833C20.8287 10.907 19.5743 12.2815 18.3675 13.8119C16.4101 14.0926 14.5646 14.5017 12.8549 15.0137C12.8458 14.8952 12.824 14.7708 12.817 14.6535C12.6093 11.1983 13.3682 8.62264 14.8454 7.76856C15.2821 7.51621 15.792 7.397 16.4074 7.397ZM33.1801 7.397C33.7935 7.397 34.3054 7.51621 34.7421 7.76856C36.2193 8.62072 36.9781 11.1983 36.7704 14.6536C36.7634 14.7708 36.7418 14.8952 36.7325 15.0137C35.0218 14.5014 33.175 14.0926 31.2162 13.8119C30.0094 12.2817 28.7587 10.9069 27.478 9.69835C29.6562 8.20403 31.6636 7.397 33.1801 7.397ZM24.7937 11.8556C25.3199 12.3345 25.8425 12.8407 26.3709 13.3948C25.8472 13.3773 25.3263 13.3532 24.7937 13.3532C24.2624 13.3532 23.7428 13.3774 23.2203 13.3948C23.7483 12.8413 24.268 12.3341 24.7937 11.8556ZM24.7937 16.7501C26.4023 16.7501 27.927 16.8401 29.3736 16.9966C30.2559 18.1957 31.1253 19.4635 31.9404 20.8751C32.7215 22.2281 33.4123 23.613 34.0218 25C33.4122 26.3878 32.722 27.7749 31.9404 29.1287C31.1279 30.5362 30.2606 31.7959 29.3812 32.992C27.8835 33.1559 26.3471 33.2498 24.7938 33.2498C23.1852 33.2498 21.6605 33.1599 20.2139 33.0034C19.3316 31.8043 18.4622 30.5403 17.6472 29.1287C16.8655 27.7749 16.1755 26.3878 15.5658 25C16.175 23.613 16.866 22.2281 17.6472 20.8751C18.46 19.4676 19.3267 18.2042 20.2063 17.0079C21.704 16.8441 23.2404 16.7501 24.7937 16.7501ZM34.0066 17.8003C34.7767 17.9863 35.5171 18.187 36.2131 18.4107C36.0554 19.1232 35.8626 19.8494 35.6444 20.5831C35.3946 20.1144 35.1524 19.6442 34.8824 19.1766C34.6045 18.6956 34.2961 18.2634 34.0066 17.8003ZM15.5771 17.8041C15.2885 18.2657 14.982 18.6971 14.7051 19.1766C14.4351 19.6443 14.1927 20.1144 13.943 20.5831C13.7244 19.8479 13.5284 19.1209 13.3705 18.4069C14.0793 18.183 14.8179 17.9847 15.5771 17.8041ZM10.1745 19.6543C10.5835 21.3811 11.1508 23.1713 11.8806 24.9962C11.1524 26.8168 10.5874 28.6036 10.1783 30.3268C6.79785 28.6944 4.89702 26.6623 4.89702 25C4.89702 23.2937 6.74476 21.3492 9.84089 19.8021C9.94656 19.7492 10.0665 19.7059 10.1745 19.6543ZM39.4092 19.6732C42.7896 21.3056 44.6905 23.3377 44.6905 25C44.6905 26.7063 42.8427 28.6508 39.7466 30.1979C39.641 30.2507 39.521 30.2941 39.413 30.3457C39.0038 28.6178 38.4411 26.826 37.7107 25C38.438 23.181 39.0004 21.3949 39.4092 19.6732ZM24.7937 21.1177C22.6488 21.1177 20.9114 22.855 20.9114 25C20.9114 27.145 22.6488 28.8823 24.7937 28.8823C26.9387 28.8823 28.676 27.145 28.676 25C28.676 22.855 26.9387 21.1177 24.7937 21.1177ZM13.943 29.4169C14.1929 29.8858 14.4388 30.3556 14.7089 30.8234C14.9864 31.3041 15.2917 31.737 15.5809 32.1997C14.8107 32.0137 14.0704 31.813 13.3744 31.5893C13.5321 30.8763 13.7247 30.1511 13.943 29.4169ZM35.6444 29.4206C35.8628 30.1552 36.0592 30.8798 36.2169 31.5931C35.5081 31.817 34.7696 32.0153 34.0104 32.1959C34.2989 31.7343 34.6054 31.3029 34.8824 30.8234C35.1518 30.3567 35.3952 29.8885 35.6444 29.4206ZM12.8549 34.9863C14.5657 35.4986 16.4125 35.9074 18.3713 36.1881C19.5784 37.719 20.8282 39.0965 22.1095 40.3055C19.9312 41.7996 17.9246 42.6068 16.4074 42.6068C15.794 42.6068 15.2821 42.4838 14.8454 42.2314C13.3682 41.3793 12.6093 38.8055 12.817 35.3502C12.8241 35.2318 12.8456 35.1061 12.8549 34.9863ZM36.7325 34.9863C36.7418 35.1061 36.7634 35.2318 36.7704 35.3502C36.9781 38.8055 36.2193 41.3773 34.7421 42.2314C34.3054 42.4838 33.7954 42.6068 33.1801 42.6068C31.6629 42.6068 29.6562 41.7999 27.478 40.3055C28.7594 39.0963 30.0126 37.7193 31.22 36.1881C33.1774 35.9074 35.0229 35.4983 36.7325 34.9863ZM23.2166 36.6052C23.7402 36.6228 24.2611 36.6469 24.7937 36.6469C25.3263 36.6469 25.8472 36.6228 26.3709 36.6052C25.8425 37.1593 25.3199 37.6655 24.7937 38.1444C24.2675 37.6655 23.745 37.1593 23.2166 36.6052Z" fill="#5ED3F3"/>
</svg>
