<svg width="50" height="50" viewBox="0 0 50 50" fill="none" xmlns="http://www.w3.org/2000/svg">
<path d="M25.0234 4.00001C24.9231 4.00047 24.8219 4.01708 24.7256 4.04995L5.6133 10.7019C5.20789 10.8425 4.954 11.2474 5.00696 11.6738L8.02797 36.4394C8.06358 36.7325 8.23677 36.9907 8.49699 37.1313L24.6115 45.8894C24.7466 45.9634 24.8969 46 25.0466 46C25.1973 46 25.3493 45.9625 25.4853 45.8876L41.6818 37.0101C41.9393 36.8685 42.1144 36.6112 42.1491 36.3199L45.1683 11.5561C45.2213 11.1279 44.9648 10.7194 44.5548 10.5806L25.3195 4.04638C25.2236 4.01442 25.1238 3.99955 25.0234 4.00001ZM25.0876 8.56364L36.9577 34.1299H32.9059L30.3664 28.6586H19.8089L17.2694 34.1299H13.2176L25.0876 8.56364ZM25.0876 17.2379L21.5084 24.9991H28.6668L25.0876 17.2379Z" fill="#BD002E"/>
</svg>
