<svg width="50" height="50" viewBox="0 0 50 50" fill="none" xmlns="http://www.w3.org/2000/svg">
<path d="M24.8751 4C24.2855 4 23.696 4.14463 23.1872 4.43539L7.17848 13.6765C6.14463 14.2742 5.5 15.4059 5.5 16.6012V33.3672C5.5 34.5787 6.14463 35.6942 7.17848 36.2919L11.381 38.715C13.4164 39.7165 14.1422 39.7151 15.0629 39.7151C18.0837 39.7151 19.8113 37.89 19.8113 34.7238V17.4247C19.8113 17.1663 19.6028 16.9546 19.3443 16.9546H17.3251C17.0505 16.9546 16.855 17.1663 16.855 17.4247V34.7081C16.855 36.1296 15.3868 37.5185 13.0122 36.3392L8.61719 33.8026C8.45565 33.7218 8.35847 33.5449 8.35847 33.3672V16.6171C8.35847 16.4232 8.45565 16.2597 8.61719 16.1627L24.6259 6.92476C24.7713 6.82784 24.966 6.82784 25.1276 6.92476L41.1363 16.1627C41.2978 16.2597 41.395 16.4236 41.395 16.6013V33.3672C41.395 33.5449 41.2974 33.7218 41.152 33.8026L25.1276 43.0595C24.9822 43.1403 24.7713 43.1403 24.6259 43.0595L20.5054 40.6206C20.3923 40.5399 20.2336 40.5245 20.1205 40.5891C18.9736 41.2352 18.7636 41.3155 17.6974 41.687C17.439 41.7678 17.0349 41.9289 17.8426 42.3812L23.1872 45.5488C23.7041 45.8396 24.2873 46 24.8688 46C25.4665 46 26.0462 45.8396 26.5631 45.5488L42.5907 36.2919C43.6246 35.6942 44.2692 34.5787 44.2692 33.3672V16.6171C44.2692 15.4055 43.6246 14.29 42.5907 13.6923L26.5631 4.43543C26.0542 4.14466 25.4647 4 24.8751 4ZM29.1818 16.9325C24.6102 16.9325 21.881 18.8697 21.881 22.1005C21.881 25.6059 24.5923 26.5736 28.9862 27.0097C34.2362 27.5267 34.64 28.3043 34.64 29.3382C34.64 31.1151 33.2047 31.8748 29.8286 31.8748C25.5801 31.8748 24.6425 30.8071 24.3356 28.7072C24.3033 28.481 24.1106 28.3191 23.8844 28.3191H21.799C21.5405 28.3191 21.3478 28.5311 21.3478 28.7734C21.3478 31.4711 22.8178 34.6828 29.8286 34.6828C34.9009 34.6828 37.8077 32.6823 37.8077 29.193C37.8077 25.7361 35.465 24.8136 30.5542 24.1513C25.5627 23.5051 25.0613 23.1658 25.0613 22.0027C25.0613 21.0335 25.4987 19.7594 29.1818 19.7594C32.461 19.7594 33.6881 20.4679 34.1888 22.681C34.2373 22.891 34.4139 23.0533 34.64 23.0533H36.7255C36.8547 23.0533 36.9662 22.9893 37.0631 22.8924C37.1439 22.8116 37.1928 22.6813 37.1767 22.5359C36.8536 18.7236 34.3187 16.9325 29.1818 16.9325Z" fill="#7CB73F"/>
</svg>
