<svg width="50" height="50" viewBox="0 0 50 50" fill="none" xmlns="http://www.w3.org/2000/svg">
<path d="M8.05309 4C6.32346 4 4.95667 4.91732 4.30948 6.50568C4.10521 6.99631 4.00191 7.51664 4 8.05309C3.99809 9.83045 5.14351 11.2731 5.83078 12.136C5.95105 12.2868 6.05928 12.4212 6.17382 12.5835L6.48331 12.9936C6.79067 13.3964 7.14068 13.8533 7.25141 14.0824C7.28768 14.1874 7.33564 14.3715 7.40057 14.6044C7.70029 15.683 8.25969 17.6877 9.14933 19.213C9.50824 19.8278 10.0133 20.6004 10.3761 21.1445C10.1336 22.3587 9.72354 24.5952 9.72354 25.9545C9.72354 28.3409 10.2184 30.2574 11.2971 32.0099C11.6961 32.6361 12.9136 34.5454 14.9735 34.5454C15.7047 34.5454 16.9197 34.2598 17.248 32.4462C18.7085 34.3305 21.1781 36.6932 24.9963 38.3636C24.9963 38.3636 17.8387 30.0122 16.5806 24.8061C16.5806 24.8061 15.2115 26.1939 14.0488 29.027C13.7014 28.1526 13.5417 27.1668 13.5417 25.9546C13.5417 24.7576 14.0683 22.0817 14.2726 21.152L14.4515 20.3429L13.9817 19.6605C13.9741 19.6472 13.0124 18.2588 12.4492 17.2928C11.8078 16.1932 11.3347 14.4916 11.0808 13.5791C10.9567 13.1342 10.8592 12.8123 10.7676 12.5947C10.4335 11.8712 9.94431 11.2357 9.51477 10.6744L9.27613 10.3575C9.15586 10.1837 8.99696 9.98243 8.81751 9.75716C8.46815 9.31807 7.81778 8.49986 7.83687 7.97486L8.04941 7.82572L8.05313 7.81825C9.57086 7.81825 11.5259 8.89563 12.2628 9.30226C12.5034 9.43399 12.6801 9.525 12.7737 9.567L13.1055 9.71241L13.758 9.73479C14.6114 9.75388 17.2051 9.81455 19.0379 10.5476C22.3807 11.884 24.2289 13.2217 26.1074 15.6634C30.5442 21.4327 32.1811 28.9041 32.1964 28.9786L32.435 30.0561L33.4791 30.3954C33.5153 30.4088 36.4373 31.3852 39.1616 33.9377C35.7348 34.7853 34.5417 36.4546 34.5417 36.4546C34.5417 36.4546 35.4505 38.2262 39.7917 40.9886C42.4167 42.6591 43.8485 43.8523 45.9963 46C45.9963 46 43.8499 41.2269 40.8507 37.424C43.1339 36.6928 45.9403 36.3129 45.9403 36.3129L44.2028 33.9041C41.3429 29.939 37.5078 27.9379 35.6827 27.1589C35.0489 24.742 33.1347 18.5371 29.1351 13.3367C26.8461 10.3604 24.4104 8.58057 20.4547 6.99794C18.1123 6.06248 15.2957 5.9509 14.0414 5.92035C12.9437 5.31708 10.5044 4 8.05309 4ZM15.8088 11.6364C15.8088 11.6364 14.9735 11.6364 14.019 11.875L16.644 15.4508C17.3599 14.5001 17.3599 13.3888 17.3599 13.3888C17.3599 13.3888 16.8836 12.1136 15.8088 11.6364Z" fill="#006F88"/>
</svg>
