<svg width="50" height="50" viewBox="0 0 50 50" fill="none" xmlns="http://www.w3.org/2000/svg">
<path d="M41.2854 28.1054C41.2854 37.9883 34.224 46 24.7371 46C15.2502 46 8.18879 37.9883 8.18879 28.1054C8.18879 18.2225 15.8165 30.713 25.3034 30.713C34.7903 30.713 41.2854 18.2225 41.2854 28.1054Z" fill="#FF9100"/>
<path d="M41.5371 28.7281C41.3483 38.0719 35.5281 42.6652 31.7214 44.427C22.6922 39.8652 18.0989 34.8629 16.8719 25.1101C16.8719 14.1239 19.4832 9.53708 25.7438 4C36.409 16.6157 40.845 20.3596 41.5371 28.7281Z" fill="#DD2C00"/>
<path d="M25.5865 28.7281C26.7499 32.409 27.3483 39.9596 18.6337 44.7416C15.991 44.1753 8 38.5817 8 28.7281C8 24.2228 9.91913 21.618 10.2337 20.8315C16.7776 19.3528 23.6674 22.6562 25.5865 28.7281Z" fill="#FFC400"/>
<path d="M17.0202 20.9543C21.0006 22.0119 24.3408 24.7867 25.5865 28.7281C26.3901 31.2707 26.9242 35.6598 24.3053 39.7073C20.069 36.1248 17.7013 31.7028 16.8719 25.1101C16.8719 23.6121 16.9205 22.233 17.0202 20.9543Z" fill="#FF9100"/>
</svg>
