<svg width="50" height="50" viewBox="0 0 50 50" fill="none" xmlns="http://www.w3.org/2000/svg">
<path fill-rule="evenodd" clip-rule="evenodd" d="M25 12.575C19.4438 12.575 15.9729 15.3354 14.5834 20.8583C16.6667 18.0979 19.0979 17.0625 21.875 17.752C23.4604 18.1458 24.5938 19.2895 25.8459 20.5541C27.8896 22.6145 30.2542 25 35.4167 25C40.9729 25 44.4438 22.2395 45.8334 16.7166C43.75 19.477 41.3209 20.5125 38.5417 19.8229C36.9563 19.4291 35.8229 18.2854 34.5688 17.0208C32.5271 14.9583 30.1646 12.575 25 12.575ZM14.5834 25C9.0271 25 5.55627 27.7604 4.16669 33.2833C6.25002 30.5208 8.68127 29.4874 11.4584 30.177C13.0438 30.5708 14.1771 31.7145 15.4313 32.9791C17.4729 35.0395 19.8375 37.425 25.0021 37.425C30.5584 37.425 34.0292 34.6645 35.4188 29.1416C33.3354 31.902 30.9042 32.9375 28.1271 32.2479C26.5417 31.8541 25.4084 30.7104 24.1563 29.4458C22.1104 27.3854 19.7459 25 14.5834 25Z" fill="#0886A2"/>
</svg>
