<svg width="50" height="50" viewBox="0 0 50 50" fill="none" xmlns="http://www.w3.org/2000/svg">
<path d="M16.3751 6.03619C16.7634 4.94192 17.8009 4.21045 18.9647 4.21045H31.1213C33.0176 4.21045 34.3436 6.08149 33.7109 7.86454L20.8639 44.0689C20.4756 45.1632 19.4381 45.8947 18.2743 45.8947H6.11769C4.22137 45.8947 2.8954 44.0236 3.52811 42.2406L16.3751 6.03619Z" fill="#0D569E"/>
<path d="M30.5547 30.966C30.0637 30.5645 29.4483 30.345 28.8133 30.345H19.4947C16.9145 30.345 15.7577 33.5723 17.7532 35.2039L30.0689 45.2737C30.56 45.6752 31.1754 45.8947 31.8104 45.8947H41.1289C43.7092 45.8947 44.8659 42.6674 42.8704 41.0358L30.5547 30.966Z" fill="#0078D4"/>
<path d="M33.7301 6.03619C33.3418 4.94192 32.3043 4.21045 31.1406 4.21045H18.9839C17.0876 4.21045 15.7616 6.08149 16.3944 7.86454L29.2413 44.0689C29.6296 45.1632 30.6671 45.8947 31.8309 45.8947H43.9875C45.8839 45.8947 47.2098 44.0236 46.5771 42.2406L33.7301 6.03619Z" fill="#30AAE8"/>
</svg>
