<svg width="50" height="50" viewBox="0 0 50 50" fill="none" xmlns="http://www.w3.org/2000/svg">
<path d="M28.1875 0C30.9375 6.36328 18.3281 10.293 17.1563 15.5938C16.082 20.4648 24.6484 26.125 24.6563 26.125C23.3555 24.1094 22.3984 22.4492 21.0938 19.3125C18.8867 14.0078 34.5352 9.20703 28.1875 0ZM36.5625 8.8125C36.5625 8.8125 25.5 9.52344 24.9375 16.5938C24.6875 19.7422 27.8477 21.3984 27.9375 23.6875C28.0117 25.5586 26.0625 27.125 26.0625 27.125C26.0625 27.125 29.6094 26.4492 30.7188 23.5938C31.9492 20.4258 28.3203 18.2852 28.6875 15.75C29.0391 13.3242 36.5625 8.8125 36.5625 8.8125ZM19.1875 25.1562C19.1875 25.1562 9.0625 25.0117 9.0625 27.875C9.0625 30.8672 22.3164 31.0898 31.7813 29.25C31.7813 29.25 34.2969 27.5195 34.9688 26.875C28.7656 28.1406 14.625 28.2812 14.625 27.1875C14.625 26.1797 19.1875 25.1562 19.1875 25.1562ZM38.6563 25.1562C37.6641 25.2344 36.5938 25.6172 35.625 26.3125C37.9063 25.8203 39.8438 27.2344 39.8438 28.8438C39.8438 32.4688 34.5938 35.875 34.5938 35.875C34.5938 35.875 42.7188 34.9531 42.7188 29C42.7188 26.2969 40.8398 24.9844 38.6563 25.1562ZM16.75 30.7188C15.1953 30.7188 12.875 31.9375 12.875 33.0938C12.875 35.418 24.5625 37.207 33.2188 33.8125L30.2188 31.9688C24.3516 33.8477 13.5469 33.2344 16.75 30.7188ZM18.1875 35.9375C16.0586 35.9375 14.6563 37.2227 14.6563 38.1875C14.6563 41.1719 27.3711 41.4727 32.4063 38.4375L29.2188 36.4062C25.457 37.9961 16.0156 38.2383 18.1875 35.9375ZM11.0938 38.625C7.625 38.5547 5.375 40.1133 5.375 41.4062C5.375 48.2812 40.875 47.9648 40.875 40.9375C40.875 39.7695 39.5273 39.2031 39.0313 38.9375C41.9336 45.6562 9.96875 45.1211 9.96875 41.1562C9.96875 40.2539 12.3203 39.3906 14.5 39.8125L12.6563 38.75C12.1133 38.668 11.5898 38.6367 11.0938 38.625ZM44.625 43.25C39.2266 48.3672 25.5469 50.2227 11.7813 47.0625C25.543 52.6953 44.5586 49.5352 44.625 43.25Z" fill="#A11016"/>
</svg>
