<svg width="50" height="50" viewBox="0 0 50 50" fill="none" xmlns="http://www.w3.org/2000/svg">
<path d="M4 8.66667V41.3333C4 43.9117 6.08833 46 8.66667 46H41.3333C43.9117 46 46 43.9117 46 41.3333V8.66667C46 6.08833 43.9117 4 41.3333 4H8.66667C6.08833 4 4 6.08833 4 8.66667ZM28.8873 26.0523H23.9453V41.3333H19.9623V26.0523H15.123V22.6667H28.8873V26.0523ZM29.662 40.4607V36.375C29.662 36.375 31.8927 38.0573 34.5713 38.0573C37.25 38.0573 37.145 36.3073 37.145 36.067C37.145 33.526 29.5593 33.526 29.5593 27.898C29.5593 20.2423 40.6123 23.264 40.6123 23.264L40.4747 26.9017C40.4747 26.9017 38.622 25.665 36.5267 25.665C34.4337 25.665 33.6777 26.6613 33.6777 27.7253C33.6777 30.4717 41.3333 30.1963 41.3333 35.724C41.3333 44.236 29.662 40.4607 29.662 40.4607Z" fill="#2F74C0"/>
</svg>
