<svg width="28" height="28" viewBox="0 0 28 28" fill="none" xmlns="http://www.w3.org/2000/svg">
<path fill-rule="evenodd" clip-rule="evenodd" d="M6 2C3.79086 2 2 3.79086 2 6V22C2 24.2091 3.79086 26 6 26H10.7326V23.4174C10.7326 23.4174 10.2593 23.5417 9.66777 23.5417C8.01136 23.5417 7.30147 22.0492 7.18315 21.1786C7.06484 20.6811 6.82821 20.308 6.47326 19.9349C6.39077 19.906 6.32105 19.8838 6.26264 19.8652C6.06971 19.8038 6 19.7816 6 19.6861C6 19.4374 6.35495 19.4374 6.47326 19.4374C7.18315 19.4374 7.77472 20.308 8.01136 20.6811C8.60293 21.6761 9.31282 21.9249 9.66777 21.9249C10.141 21.9249 10.496 21.8005 10.7326 21.6761C10.8509 20.8055 11.2059 19.9349 11.9158 19.4374C9.19451 18.8155 7.18315 17.1987 7.18315 14.4624C7.18315 13.0943 7.77472 11.7262 8.60293 10.7312C8.48461 10.4825 8.3663 9.8606 8.3663 8.98998C8.3663 8.49249 8.3663 7.74624 8.72125 7C8.72125 7 10.3777 7 12.0341 8.61686C12.6256 8.36811 13.4538 8.24374 14.2821 8.24374C15.1103 8.24374 15.9385 8.36811 16.6484 8.61686C18.1864 7 19.9612 7 19.9612 7C20.1978 7.74624 20.1978 8.49249 20.1978 8.98998C20.1978 9.98497 20.0795 10.4825 19.9612 10.7312C20.7894 11.7262 21.381 12.9699 21.381 14.4624C21.381 17.1987 19.3696 18.8155 16.6484 19.4374C17.3582 20.0593 17.8315 21.1786 17.8315 22.298V26H22C24.2091 26 26 24.2091 26 22V6C26 3.79086 24.2091 2 22 2H6Z" fill="#E6E6E6"/>
</svg>
