<svg width="28" height="28" viewBox="0 0 28 28" fill="none" xmlns="http://www.w3.org/2000/svg">
<path fill-rule="evenodd" clip-rule="evenodd" d="M6 2C3.79086 2 2 3.79086 2 6V22C2 24.2091 3.79086 26 6 26H22C24.2091 26 26 24.2091 26 22V6C26 3.79086 24.2091 2 22 2H6ZM9.55687 7.79775C9.55687 8.79062 8.76064 9.59551 7.77844 9.59551C6.79623 9.59551 6 8.79062 6 7.79775C6 6.80488 6.79623 6 7.77844 6C8.76064 6 9.55687 6.80488 9.55687 7.79775ZM9.55687 11.1056V22H6V11.1056H9.55687ZM14.6906 11.1056H11.1338V22H14.6906V15.3543C14.6906 15.3543 15.5265 13.2809 17.1982 14.1019C17.7406 14.3682 18.4165 14.9814 18.6328 16.1094C18.6328 18.5064 18.6506 22 18.6506 22H22V15.1206C21.8755 12.3581 19.5398 10.6597 17.465 10.9798C15.3901 11.2998 14.6906 12.5109 14.6906 12.5109V11.1056Z" fill="#E6E6E6"/>
</svg>
