<svg width="80" height="80" viewBox="0 0 80 80" fill="none" xmlns="http://www.w3.org/2000/svg">
<path d="M70.8625 21.5626C70.7108 21.1877 70.4705 20.8553 70.1622 20.5937C69.8539 20.3322 69.4867 20.1493 69.0921 20.0608C68.6976 19.9723 68.2875 19.9808 67.897 20.0857C67.5065 20.1905 67.1472 20.3884 66.85 20.6626L54.2562 32.2844L48.8719 31.1282L47.7156 25.7438L59.3375 13.1501C59.6116 12.8528 59.8096 12.4936 59.9144 12.1031C60.0192 11.7125 60.0277 11.3024 59.9392 10.9079C59.8507 10.5134 59.6679 10.1462 59.4063 9.83785C59.1448 9.5295 58.8123 9.2892 58.4375 9.13755C55.0217 7.75578 51.3188 7.23406 47.6541 7.61824C43.9895 8.00241 40.4753 9.28072 37.4203 11.3408C34.3653 13.401 31.863 16.1798 30.1332 19.4333C28.4035 22.6868 27.4993 26.3153 27.5 30.0001C27.4959 33.1116 28.1343 36.1904 29.375 39.0438L10.5594 55.3126C10.5125 55.3501 10.4687 55.3938 10.425 55.4344C8.54942 57.31 7.49573 59.8538 7.49573 62.5063C7.49573 63.8197 7.75441 65.1202 8.25702 66.3336C8.75962 67.547 9.4963 68.6495 10.425 69.5782C11.3537 70.5069 12.4562 71.2436 13.6696 71.7462C14.883 72.2488 16.1835 72.5074 17.4969 72.5074C20.1493 72.5074 22.6932 71.4538 24.5687 69.5782C24.6094 69.5376 24.6531 69.4907 24.6906 69.4469L40.9562 50.6251C44.3826 52.1291 48.13 52.7549 51.8591 52.4457C55.5882 52.1365 59.1814 50.9021 62.3132 48.8544C65.4451 46.8066 68.0168 44.01 69.7955 40.7179C71.5742 37.4258 72.5037 33.742 72.5 30.0001C72.5049 27.1081 71.9488 24.2427 70.8625 21.5626ZM50 47.5001C47.0408 47.496 44.1308 46.7435 41.5406 45.3126C41.0388 45.0353 40.457 44.939 39.8926 45.0397C39.3282 45.1404 38.8156 45.432 38.4406 45.8657L20.9719 66.0969C20.0266 66.995 18.7678 67.4883 17.464 67.4716C16.1602 67.4549 14.9145 66.9296 13.9925 66.0076C13.0705 65.0856 12.5451 63.8399 12.5284 62.536C12.5117 61.2322 13.005 59.9735 13.9031 59.0282L34.1187 41.5626C34.5532 41.1874 34.8452 40.6742 34.946 40.1091C35.0467 39.5441 34.9499 38.9616 34.6719 38.4594C33.0782 35.5771 32.3303 32.3035 32.5142 29.015C32.698 25.7265 33.8061 22.5567 35.7111 19.8699C37.6161 17.1831 40.2407 15.0885 43.283 13.8268C46.3254 12.5651 49.662 12.1875 52.9094 12.7376L43.1594 23.3032C42.8881 23.5975 42.6914 23.9526 42.5859 24.3387C42.4804 24.7248 42.4692 25.1306 42.5531 25.5219L44.3219 33.7501C44.423 34.2207 44.6579 34.652 44.9983 34.9924C45.3386 35.3328 45.77 35.5676 46.2406 35.6688L54.475 37.4376C54.8663 37.5215 55.2721 37.5102 55.6582 37.4047C56.0443 37.2992 56.3995 37.1026 56.6937 36.8313L67.2594 27.0813C67.6806 29.5907 67.5501 32.1617 66.877 34.6156C66.2039 37.0695 65.0043 39.3472 63.3617 41.2905C61.7191 43.2338 59.6729 44.796 57.3654 45.8683C55.0579 46.9407 52.5445 47.4975 50 47.5001Z" fill="white"/>
</svg>
