<svg width="40" height="40" viewBox="0 0 40 40" fill="none" xmlns="http://www.w3.org/2000/svg">
<path d="M13.75 17.5C13.4185 17.5 13.1005 17.6317 12.8661 17.8661C12.6317 18.1005 12.5 18.4185 12.5 18.75C12.5 19.0815 12.6317 19.3995 12.8661 19.6339C13.1005 19.8683 13.4185 20 13.75 20H26.25C26.5815 20 26.8995 19.8683 27.1339 19.6339C27.3683 19.3995 27.5 19.0815 27.5 18.75C27.5 18.4185 27.3683 18.1005 27.1339 17.8661C26.8995 17.6317 26.5815 17.5 26.25 17.5H13.75ZM12.5 23.75C12.5 23.4185 12.6317 23.1005 12.8661 22.8661C13.1005 22.6317 13.4185 22.5 13.75 22.5H26.25C26.5815 22.5 26.8995 22.6317 27.1339 22.8661C27.3683 23.1005 27.5 23.4185 27.5 23.75C27.5 24.0815 27.3683 24.3995 27.1339 24.6339C26.8995 24.8683 26.5815 25 26.25 25H13.75C13.4185 25 13.1005 24.8683 12.8661 24.6339C12.6317 24.3995 12.5 24.0815 12.5 23.75ZM12.5 28.75C12.5 28.4185 12.6317 28.1005 12.8661 27.8661C13.1005 27.6317 13.4185 27.5 13.75 27.5H18.75C19.0815 27.5 19.3995 27.6317 19.6339 27.8661C19.8683 28.1005 20 28.4185 20 28.75C20 29.0815 19.8683 29.3995 19.6339 29.6339C19.3995 29.8683 19.0815 30 18.75 30H13.75C13.4185 30 13.1005 29.8683 12.8661 29.6339C12.6317 29.3995 12.5 29.0815 12.5 28.75Z" fill="white"/>
<path d="M23.75 0H10C8.67392 0 7.40215 0.526784 6.46447 1.46447C5.52678 2.40215 5 3.67392 5 5V35C5 36.3261 5.52678 37.5979 6.46447 38.5355C7.40215 39.4732 8.67392 40 10 40H30C31.3261 40 32.5979 39.4732 33.5355 38.5355C34.4732 37.5979 35 36.3261 35 35V11.25L23.75 0ZM23.75 2.5V7.5C23.75 8.49456 24.1451 9.44839 24.8483 10.1517C25.5516 10.8549 26.5054 11.25 27.5 11.25H32.5V35C32.5 35.663 32.2366 36.2989 31.7678 36.7678C31.2989 37.2366 30.663 37.5 30 37.5H10C9.33696 37.5 8.70107 37.2366 8.23223 36.7678C7.76339 36.2989 7.5 35.663 7.5 35V5C7.5 4.33696 7.76339 3.70107 8.23223 3.23223C8.70107 2.76339 9.33696 2.5 10 2.5H23.75Z" fill="white"/>
</svg>
