<svg width="150" height="150" viewBox="0 0 150 150" fill="none" xmlns="http://www.w3.org/2000/svg">
<path d="M12 26V124C12 131.735 18.265 138 26 138H124C131.735 138 138 131.735 138 124V26C138 18.265 131.735 12 124 12H26C18.265 12 12 18.265 12 26ZM86.662 78.157H71.836V124H59.887V78.157H45.369V68H86.662V78.157ZM88.986 121.382V109.125C88.986 109.125 95.678 114.172 103.714 114.172C111.75 114.172 111.435 108.922 111.435 108.201C111.435 100.578 88.678 100.578 88.678 83.694C88.678 60.727 121.837 69.792 121.837 69.792L121.424 80.705C121.424 80.705 115.866 76.995 109.58 76.995C103.301 76.995 101.033 79.984 101.033 83.176C101.033 91.415 124 90.589 124 107.172C124 132.708 88.986 121.382 88.986 121.382Z" fill="#2F74C0"/>
</svg>
