<svg width="150" height="150" viewBox="0 0 150 150" fill="none" xmlns="http://www.w3.org/2000/svg">
<path d="M49.2222 12C45.6641 12 42.364 12.7965 39.4406 14.4795C30.3044 19.7543 26.8269 32.6085 28.6695 48.6126C13.8915 55.0188 4.5 64.4518 4.5 75C4.5 85.5482 13.8915 94.9812 28.6695 101.387C26.8278 117.391 30.3044 130.246 39.4406 135.521C42.3581 137.203 45.6582 138 49.2222 138C56.808 138 65.5753 134.193 74.3812 127.661C83.1879 134.193 91.9659 138 99.5517 138C103.11 138 106.41 137.203 109.333 135.521C118.469 130.246 121.947 117.391 120.104 101.387C134.877 94.9812 144.262 85.5459 144.262 75C144.262 64.4518 134.871 55.0188 120.093 48.6126C121.935 32.6092 118.458 19.7543 109.322 14.4795C106.404 12.7907 103.104 12 99.5403 12C91.9545 12 83.1872 15.8072 74.3813 22.3389C65.5748 15.8072 56.8053 12 49.2222 12ZM49.2222 22.191C53.7739 22.191 59.7933 24.6113 66.3285 29.095C62.4861 32.7211 58.7229 36.8445 55.1024 41.4357C49.2303 42.2777 43.6937 43.5051 38.5648 45.0412C38.5373 44.6855 38.4721 44.3123 38.4511 43.9606C37.828 33.5949 40.1045 25.8679 44.5361 23.3057C45.8464 22.5486 47.3761 22.191 49.2222 22.191ZM99.5403 22.191C101.38 22.191 102.916 22.5486 104.226 23.3057C108.658 25.8622 110.934 33.5949 110.311 43.9607C110.29 44.3123 110.225 44.6855 110.198 45.0412C105.065 43.5042 99.5249 42.2778 93.6486 41.4357C90.0282 36.8452 86.2762 32.7208 82.4339 29.095C88.9687 24.6121 94.9908 22.191 99.5403 22.191ZM74.3812 35.5667C75.9598 37.0036 77.5274 38.5222 79.1128 40.1845C77.5417 40.1318 75.979 40.0595 74.3812 40.0595C72.7873 40.0595 71.2284 40.1321 69.661 40.1845C71.2449 38.524 72.8041 37.0022 74.3812 35.5667ZM74.3812 50.2504C79.207 50.2504 83.781 50.5202 88.1209 50.9897C90.7676 54.5871 93.376 58.3905 95.8211 62.6252C98.1646 66.6843 100.237 70.8391 102.065 75C100.237 79.1634 98.166 83.3246 95.8211 87.3861C93.3836 91.6087 90.7817 95.3876 88.1437 98.9761C83.6505 99.4677 79.0413 99.7495 74.3813 99.7495C69.5554 99.7495 64.9815 99.4798 60.6416 99.0102C57.9949 95.4129 55.3866 91.6208 52.9415 87.3861C50.5966 83.3246 48.5264 79.1634 46.6972 75C48.5251 70.8391 50.598 66.6843 52.9415 62.6252C55.3799 58.4027 57.9802 54.6124 60.6189 51.0238C65.1121 50.5322 69.7212 50.2504 74.3812 50.2504ZM102.02 53.401C104.33 53.9588 106.551 54.561 108.639 55.2322C108.166 57.3697 107.588 59.5482 106.933 61.7494C106.184 60.3432 105.457 58.9326 104.647 57.5297C103.814 56.0867 102.888 54.7901 102.02 53.401ZM46.7313 53.4124C45.8656 54.7972 44.9461 56.0913 44.1152 57.5297C43.3054 58.9328 42.5782 60.3431 41.8291 61.7494C41.1731 59.5436 40.5851 57.3626 40.1116 55.2208C42.238 54.549 44.4536 53.9541 46.7313 53.4124ZM30.5235 58.9628C31.7505 64.1434 33.4525 69.5138 35.6417 74.9886C33.4572 80.4504 31.7623 85.8109 30.5349 90.9803C20.3935 86.0831 14.6911 79.987 14.6911 74.9999C14.6911 69.8811 20.2343 64.0476 29.5227 59.4064C29.8397 59.2477 30.1995 59.1177 30.5235 58.9628ZM118.228 59.0197C128.369 63.9168 134.071 70.013 134.071 75C134.071 80.1188 128.528 85.9523 119.24 90.5936C118.923 90.7522 118.563 90.8823 118.239 91.0372C117.011 85.8535 115.323 80.4781 113.132 74.9999C115.314 69.5429 117.001 64.1847 118.228 59.0197ZM74.3812 63.3531C67.9463 63.3531 62.7343 68.5651 62.7343 75C62.7343 81.4349 67.9463 86.6469 74.3812 86.6469C80.8161 86.6469 86.0281 81.4349 86.0281 75C86.0281 68.5651 80.8161 63.3531 74.3812 63.3531ZM41.8291 88.2506C42.5787 89.6573 43.3163 91.0669 44.1267 92.4703C44.9592 93.9123 45.875 95.2109 46.7427 96.599C44.4322 96.0412 42.2111 95.439 40.1231 94.7678C40.5964 92.629 41.1741 90.4532 41.8291 88.2506ZM106.933 88.2619C107.589 90.4656 108.178 92.6395 108.651 94.7792C106.524 95.451 104.309 96.0459 102.031 96.5876C102.897 95.2028 103.816 93.9087 104.647 92.4703C105.455 91.0701 106.186 89.6654 106.933 88.2619ZM38.5648 104.959C43.697 106.496 49.2375 107.722 55.1139 108.564C58.7353 113.157 62.4845 117.289 66.3285 120.916C59.7937 125.399 53.7737 127.82 49.2222 127.82C47.382 127.82 45.8464 127.451 44.5361 126.694C40.1045 124.138 37.828 116.416 38.4511 106.051C38.4724 105.695 38.5368 105.318 38.5648 104.959ZM110.198 104.959C110.226 105.318 110.29 105.695 110.311 106.051C110.934 116.416 108.658 124.132 104.226 126.694C102.916 127.451 101.386 127.82 99.5403 127.82C94.9888 127.82 88.9687 125.4 82.4339 120.916C86.2783 117.289 90.0377 113.158 93.6599 108.564C99.5321 107.722 105.069 106.495 110.198 104.959ZM69.6497 109.816C71.2207 109.868 72.7834 109.941 74.3812 109.941C75.979 109.941 77.5417 109.868 79.1128 109.816C77.5274 111.478 75.9598 112.997 74.3812 114.433C72.8026 112.996 71.235 111.478 69.6497 109.816Z" fill="#5ED3F3"/>
</svg>
