<svg width="56" height="56" viewBox="0 0 56 56" fill="none" xmlns="http://www.w3.org/2000/svg">
<path d="M25.4334 4.90003C14.7 6.06669 6.06669 14.7 4.90002 25.2C3.73335 36.1667 10.0334 45.9667 19.6 49.7C20.3 49.9334 21 49.4667 21 48.5334V44.8C21 44.8 20.0667 45.0334 18.9 45.0334C15.6334 45.0334 14.2334 42.2334 14 40.6C13.7667 39.6667 13.3 38.9667 12.6 38.2667C11.9 38.0334 11.6667 38.0334 11.6667 37.8C11.6667 37.3334 12.3667 37.3334 12.6 37.3334C14 37.3334 15.1667 38.9667 15.6334 39.6667C16.8 41.5334 18.2 42 18.9 42C19.8334 42 20.5334 41.7667 21 41.5334C21.2334 39.9 21.9334 38.2667 23.3334 37.3334C17.9667 36.1667 14 33.1334 14 28C14 25.4334 15.1667 22.8667 16.8 21C16.5667 20.5334 16.3334 19.3667 16.3334 17.7334C16.3334 16.8 16.3334 15.4 17.0334 14C17.0334 14 20.3 14 23.5667 17.0334C24.7334 16.5667 26.3667 16.3334 28 16.3334C29.6334 16.3334 31.2667 16.5667 32.6667 17.0334C35.7 14 39.2 14 39.2 14C39.6667 15.4 39.6667 16.8 39.6667 17.7334C39.6667 19.6 39.4334 20.5334 39.2 21C40.8334 22.8667 42 25.2 42 28C42 33.1334 38.0334 36.1667 32.6667 37.3334C34.0667 38.5 35 40.6 35 42.7V48.7667C35 49.4667 35.7 50.1667 36.6334 49.9334C45.2667 46.4334 51.3334 38.0334 51.3334 28.2334C51.3334 14.2334 39.4334 3.26669 25.4334 4.90003Z" fill="white"/>
</svg>
