<svg width="150" height="150" viewBox="0 0 150 150" fill="none" xmlns="http://www.w3.org/2000/svg">
<path fill-rule="evenodd" clip-rule="evenodd" d="M32.5977 12C24.4668 12 18.4504 19.8991 18.7197 28.4658C18.9781 36.696 18.6424 47.3551 16.2247 56.0477C13.7998 64.7659 9.69871 70.2884 3 70.9975V79.0025C9.69871 79.7116 13.7998 85.2341 16.2247 93.9523C18.6424 102.645 18.9781 113.304 18.7197 121.534C18.4504 130.1 24.4668 138 32.5989 138H115.913C124.044 138 130.059 130.101 129.79 121.534C129.532 113.304 129.867 102.645 132.285 93.9523C134.711 85.2341 138.801 79.7116 145.5 79.0025V70.9975C138.801 70.2884 134.711 64.7659 132.285 56.0477C129.867 47.3564 129.532 36.696 129.79 28.4658C130.059 19.9005 124.044 12 115.913 12H32.5965H32.5977ZM99.6102 89.561C99.6102 101.357 91.6833 108.511 78.5286 108.511H56.1356C55.495 108.511 54.8807 108.228 54.4277 107.725C53.9748 107.223 53.7203 106.541 53.7203 105.83V44.1702C53.7203 43.4592 53.9748 42.7773 54.4277 42.2746C54.8807 41.7718 55.495 41.4894 56.1356 41.4894H78.4006C89.3695 41.4894 96.5682 48.0843 96.5682 58.2098C96.5682 65.3168 91.7256 71.6798 85.5558 72.7937V73.165C93.9549 74.1877 99.6102 80.6432 99.6102 89.561ZM76.0868 49.9877H63.3186V70.0056H74.0725C82.3858 70.0056 86.9699 66.2899 86.9699 59.6481C86.9699 53.4245 83.0282 49.9877 76.0868 49.9877ZM63.3186 77.9489V100.01H76.5566C85.2116 100.01 89.797 96.1546 89.797 88.9096C89.797 81.6633 85.0836 77.9476 75.9999 77.9476L63.3186 77.9489Z" fill="#6B11E9"/>
</svg>
