<svg width="150" height="150" viewBox="0 0 150 150" fill="none" xmlns="http://www.w3.org/2000/svg">
<path d="M74.6254 12C72.8565 12 71.0881 12.4339 69.5615 13.3062L21.5354 41.0295C18.4339 42.8226 16.5 46.2176 16.5 49.8037V100.101C16.5 103.736 18.4339 107.083 21.5354 108.876L34.143 116.145C40.2491 119.149 42.4265 119.145 45.1888 119.145C54.2511 119.145 59.4338 113.67 59.4338 104.172V52.2742C59.4338 51.4988 58.8084 50.8639 58.033 50.8639H51.9753C51.1515 50.8639 50.565 51.4988 50.565 52.2742V104.124C50.565 108.389 46.1603 112.555 39.0365 109.018L25.8516 101.408C25.3669 101.165 25.0754 100.635 25.0754 100.102V49.8512C25.0754 49.2696 25.3669 48.779 25.8516 48.4882L73.8777 20.7743C74.3138 20.4835 74.898 20.4835 75.3826 20.7743L123.409 48.4882C123.893 48.779 124.185 49.2708 124.185 49.8038V100.102C124.185 100.635 123.892 101.165 123.456 101.408L75.3827 129.178C74.9465 129.421 74.3139 129.421 73.8777 129.178L61.5163 121.862C61.177 121.62 60.7008 121.573 60.3615 121.767C56.9208 123.706 56.2908 123.947 53.0923 125.061C52.3169 125.303 51.1046 125.787 53.5277 127.143L69.5616 136.646C71.1124 137.519 72.8619 138 74.6065 138C76.3996 138 78.1385 137.519 79.6893 136.646L127.772 108.876C130.874 107.083 132.808 103.736 132.808 100.102V49.8512C132.808 46.2166 130.874 42.8701 127.772 41.077L79.6893 13.3063C78.1627 12.434 76.3942 12 74.6254 12ZM87.5453 50.7976C73.8307 50.7976 65.643 56.6092 65.643 66.3015C65.643 76.8176 73.777 79.7208 86.9585 81.0292C102.708 82.58 103.92 84.913 103.92 88.0145C103.92 93.3453 99.6141 95.6245 89.4857 95.6245C76.7403 95.6245 73.9276 92.4214 73.0069 86.1214C72.9099 85.443 72.3318 84.9573 71.6533 84.9573H65.3969C64.6215 84.9573 64.0434 85.5933 64.0434 86.3202C64.0434 94.4133 68.4534 104.048 89.4857 104.048C104.703 104.048 113.423 98.0467 113.423 87.5791C113.423 77.2083 106.395 74.4407 91.6626 72.4538C76.688 70.5154 75.1839 69.4973 75.1839 66.008C75.1839 63.1004 76.4961 59.2783 87.5453 59.2783C97.383 59.2783 101.064 61.4038 102.566 68.043C102.712 68.673 103.242 69.1599 103.92 69.1599H110.176C110.564 69.1599 110.898 68.968 111.189 68.6772C111.432 68.4349 111.578 68.0438 111.53 67.6077C110.561 56.1707 102.956 50.7976 87.5453 50.7976Z" fill="#7CB73F"/>
</svg>
