<svg width="150" height="150" viewBox="0 0 150 150" fill="none" xmlns="http://www.w3.org/2000/svg">
<path d="M75.0703 12C74.7693 12.0014 74.4658 12.0512 74.1768 12.1498L16.8399 32.1057C15.6237 32.5275 14.862 33.7422 15.0209 35.0215L24.0839 109.318C24.1907 110.197 24.7103 110.972 25.491 111.394L73.8344 137.668C74.2398 137.89 74.6906 138 75.1398 138C75.5918 138 76.0478 137.888 76.4559 137.663L125.045 111.03C125.818 110.606 126.343 109.834 126.447 108.96L135.505 34.6684C135.664 33.3837 134.894 32.1582 133.664 31.7419L75.9584 12.1391C75.6707 12.0433 75.3713 11.9987 75.0703 12ZM75.2629 25.6909L110.873 102.39H98.7177L91.0991 85.9757H59.4266L51.8081 102.39H39.6527L75.2629 25.6909ZM75.2629 51.7138L64.5252 74.9973H86.0005L75.2629 51.7138Z" fill="#BD002E"/>
</svg>
