<svg width="150" height="150" viewBox="0 0 150 150" fill="none" xmlns="http://www.w3.org/2000/svg">
<path d="M24.1593 12C18.9704 12 14.87 14.752 12.9285 19.517C12.3156 20.9889 12.0057 22.5499 12 24.1593C11.9943 29.4914 15.4305 33.8193 17.4923 36.408C17.8532 36.8605 18.1778 37.2635 18.5215 37.7504L19.4499 38.9808C20.372 40.1893 21.422 41.5598 21.7542 42.2471C21.863 42.5621 22.0069 43.1145 22.2017 43.8132C23.1009 47.0491 24.7791 53.0631 27.448 57.6391C28.5247 59.4833 30.04 61.8013 31.1282 63.4335C30.4009 67.0761 29.1706 73.7857 29.1706 77.8635C29.1706 85.0226 30.6553 90.7721 33.8912 96.0297C35.0882 97.9083 38.7409 103.636 44.9206 103.636C47.1142 103.636 50.759 102.779 51.7441 97.3385C56.1255 102.991 63.5342 110.079 74.9888 115.091C74.9888 115.091 53.5161 90.0366 49.7418 74.4183C49.7418 74.4183 45.6344 78.5817 42.1465 87.0809C41.1041 84.4579 40.6252 81.5004 40.6252 77.8637C40.6252 74.2727 42.2049 66.2452 42.8177 63.456L43.3546 61.0287L41.9452 58.9816C41.9223 58.9415 39.0373 54.7765 37.3477 51.8785C35.4234 48.5796 34.0042 43.4748 33.2424 40.7372C32.8702 39.4027 32.5777 38.4369 32.3028 37.7841C31.3005 35.6135 29.8329 33.7071 28.5443 32.0233L27.8284 31.0724C27.4676 30.5512 26.9909 29.9473 26.4525 29.2715C25.4044 27.9542 23.4533 25.4996 23.5106 23.9246L24.1482 23.4772L24.1594 23.4548C28.7126 23.4548 34.5777 26.6869 36.7885 27.9068C37.5101 28.302 38.0403 28.575 38.321 28.701L39.3165 29.1372L41.2741 29.2044C43.8342 29.2616 51.6154 29.4436 57.1136 31.6429C67.142 35.652 72.6867 39.665 78.3223 46.9902C91.6325 64.298 96.5433 86.7123 96.5891 86.9356L97.305 90.1684L100.437 91.1863C100.546 91.2264 109.312 94.1557 117.485 101.813C107.204 104.356 103.625 109.364 103.625 109.364C103.625 109.364 106.351 114.679 119.375 122.966C127.25 127.977 131.546 131.557 137.989 138C137.989 138 131.55 123.681 122.552 112.272C129.402 110.078 137.821 108.939 137.821 108.939L132.608 101.712C124.029 89.8169 112.523 83.8135 107.048 81.4768C105.147 74.2261 99.404 55.6112 87.4054 40.0101C80.5384 31.0813 73.2312 25.7417 61.3642 20.9938C54.3369 18.1874 45.887 17.8527 42.1242 17.7611C38.831 15.9512 31.5131 12 24.1593 12ZM47.4263 34.9091C47.4263 34.9091 44.9206 34.9091 42.057 35.625L49.932 46.3524C52.0797 43.5002 52.0797 40.1665 52.0797 40.1665C52.0797 40.1665 50.6507 36.3409 47.4263 34.9091Z" fill="#006F88"/>
</svg>
