<svg width="56" height="56" viewBox="0 0 56 56" fill="none" xmlns="http://www.w3.org/2000/svg">
<path fill-rule="evenodd" clip-rule="evenodd" d="M29.5794 15.4231C29.5794 15.0457 29.4295 14.6837 29.1626 14.4168C28.8957 14.1499 28.5337 14 28.1563 14H9.26923C8.13696 14 7.05106 14.4498 6.25043 15.2504C5.44979 16.0511 5 17.137 5 18.2692L5 46.7308C5 47.863 5.44979 48.9489 6.25043 49.7496C7.05106 50.5502 8.13696 51 9.26923 51H37.7308C38.863 51 39.9489 50.5502 40.7496 49.7496C41.5502 48.9489 42 47.863 42 46.7308V27.8437C42 27.4663 41.8501 27.1043 41.5832 26.8374C41.3163 26.5705 40.9543 26.4206 40.5769 26.4206C40.1995 26.4206 39.8375 26.5705 39.5707 26.8374C39.3038 27.1043 39.1538 27.4663 39.1538 27.8437V46.7308C39.1538 47.1082 39.0039 47.4702 38.737 47.737C38.4702 48.0039 38.1082 48.1538 37.7308 48.1538H9.26923C8.89181 48.1538 8.52984 48.0039 8.26296 47.737C7.99608 47.4702 7.84615 47.1082 7.84615 46.7308V18.2692C7.84615 17.8918 7.99608 17.5298 8.26296 17.263C8.52984 16.9961 8.89181 16.8462 9.26923 16.8462H28.1563C28.5337 16.8462 28.8957 16.6962 29.1626 16.4293C29.4295 16.1625 29.5794 15.8005 29.5794 15.4231Z" fill="white"/>
<path fill-rule="evenodd" clip-rule="evenodd" d="M51 6.44991C51 6.06537 50.8472 5.69658 50.5753 5.42467C50.3034 5.15276 49.9346 5 49.5501 5H35.051C34.6665 5 34.2977 5.15276 34.0258 5.42467C33.7539 5.69658 33.6011 6.06537 33.6011 6.44991C33.6011 6.83445 33.7539 7.20324 34.0258 7.47515C34.2977 7.74706 34.6665 7.89982 35.051 7.89982H46.05L22.4252 31.5217C22.2904 31.6565 22.1835 31.8166 22.1105 31.9927C22.0376 32.1688 22 32.3576 22 32.5483C22 32.7389 22.0376 32.9277 22.1105 33.1038C22.1835 33.28 22.2904 33.44 22.4252 33.5748C22.56 33.7096 22.72 33.8165 22.8962 33.8895C23.0723 33.9625 23.2611 34 23.4517 34C23.6424 34 23.8312 33.9625 24.0073 33.8895C24.1834 33.8165 24.3435 33.7096 24.4783 33.5748L48.1002 9.94999V20.949C48.1002 21.3335 48.2529 21.7023 48.5249 21.9742C48.7968 22.2461 49.1656 22.3989 49.5501 22.3989C49.9346 22.3989 50.3034 22.2461 50.5753 21.9742C50.8472 21.7023 51 21.3335 51 20.949V6.44991Z" fill="white"/>
</svg>
