<svg width="56" height="56" viewBox="0 0 56 56" fill="none" xmlns="http://www.w3.org/2000/svg">
<path fill-rule="evenodd" clip-rule="evenodd" d="M21.7359 34.2641C21.4655 33.9937 21.0988 33.8419 20.7164 33.8419C20.3341 33.8419 19.9673 33.9937 19.6969 34.2641L7.88401 46.077V38.094C7.88401 37.7116 7.73209 37.3448 7.46166 37.0744C7.19123 36.804 6.82445 36.652 6.44201 36.652C6.05956 36.652 5.69278 36.804 5.42235 37.0744C5.15193 37.3448 5 37.7116 5 38.094V49.558C5 49.9404 5.15193 50.3072 5.42235 50.5776C5.69278 50.8481 6.05956 51 6.44201 51H17.906C18.2884 51 18.6552 50.8481 18.9256 50.5776C19.196 50.3072 19.348 49.9404 19.348 49.558C19.348 49.1756 19.196 48.8088 18.9256 48.5383C18.6552 48.2679 18.2884 48.116 17.906 48.116H9.92301L21.7359 36.3031C22.0063 36.0327 22.1581 35.6659 22.1581 35.2836C22.1581 34.9012 22.0063 34.5345 21.7359 34.2641ZM34.2641 34.2641C34.5345 33.9937 34.9012 33.8419 35.2836 33.8419C35.6659 33.8419 36.0327 33.9937 36.3031 34.2641L48.116 46.077V38.094C48.116 37.7116 48.2679 37.3448 48.5383 37.0744C48.8088 36.804 49.1756 36.652 49.558 36.652C49.9404 36.652 50.3072 36.804 50.5776 37.0744C50.8481 37.3448 51 37.7116 51 38.094V49.558C51 49.9404 50.8481 50.3072 50.5776 50.5776C50.3072 50.8481 49.9404 51 49.558 51H38.094C37.7116 51 37.3448 50.8481 37.0744 50.5776C36.804 50.3072 36.652 49.9404 36.652 49.558C36.652 49.1756 36.804 48.8088 37.0744 48.5383C37.3448 48.2679 37.7116 48.116 38.094 48.116H46.077L34.2641 36.3031C33.9937 36.0327 33.8419 35.6659 33.8419 35.2836C33.8419 34.9012 33.9937 34.5345 34.2641 34.2641ZM34.2641 21.7359C34.5345 22.0063 34.9012 22.1581 35.2836 22.1581C35.6659 22.1581 36.0327 22.0063 36.3031 21.7359L48.116 9.92301V17.906C48.116 18.2884 48.2679 18.6552 48.5383 18.9256C48.8088 19.196 49.1756 19.348 49.558 19.348C49.9404 19.348 50.3072 19.196 50.5776 18.9256C50.8481 18.6552 51 18.2884 51 17.906V6.44201C51 6.05956 50.8481 5.69278 50.5776 5.42235C50.3072 5.15193 49.9404 5 49.558 5H38.094C37.7116 5 37.3448 5.15193 37.0744 5.42235C36.804 5.69278 36.652 6.05956 36.652 6.44201C36.652 6.82445 36.804 7.19123 37.0744 7.46166C37.3448 7.73209 37.7116 7.88401 38.094 7.88401H46.077L34.2641 19.6969C33.9937 19.9673 33.8419 20.3341 33.8419 20.7164C33.8419 21.0988 33.9937 21.4655 34.2641 21.7359ZM21.7359 21.7359C21.4655 22.0063 21.0988 22.1581 20.7164 22.1581C20.3341 22.1581 19.9673 22.0063 19.6969 21.7359L7.88401 9.92301V17.906C7.88401 18.2884 7.73209 18.6552 7.46166 18.9256C7.19123 19.196 6.82445 19.348 6.44201 19.348C6.05956 19.348 5.69278 19.196 5.42235 18.9256C5.15193 18.6552 5 18.2884 5 17.906V6.44201C5 6.05956 5.15193 5.69278 5.42235 5.42235C5.69278 5.15193 6.05956 5 6.44201 5H17.906C18.2884 5 18.6552 5.15193 18.9256 5.42235C19.196 5.69278 19.348 6.05956 19.348 6.44201C19.348 6.82445 19.196 7.19123 18.9256 7.46166C18.6552 7.73209 18.2884 7.88401 17.906 7.88401H9.92301L21.7359 19.6969C22.0063 19.9673 22.1581 20.3341 22.1581 20.7164C22.1581 21.0988 22.0063 21.4655 21.7359 21.7359Z" fill="white"/>
</svg>
