<svg width="150" height="150" viewBox="0 0 150 150" fill="none" xmlns="http://www.w3.org/2000/svg">
<path d="M126.714 18.6627C124.949 22.8949 122.689 26.9032 119.982 30.604C114.071 24.6685 107.039 19.9672 99.2951 16.7736C91.5512 13.5799 83.2497 11.9576 74.8732 12.0008C66.4967 12.0441 58.2123 13.7522 50.5018 17.0257C42.7913 20.2992 35.8085 25.0728 29.9593 31.0691C24.1102 37.0653 19.5114 44.1646 16.4303 51.954C13.3493 59.7434 11.8475 68.0676 12.0122 76.4426C12.177 84.8176 14.0049 93.0763 17.3899 100.738C20.7749 108.401 25.6493 115.314 31.7297 121.075L34.0652 123.137C42.9776 130.647 53.7937 135.544 65.3168 137.289C76.84 139.033 88.6211 137.555 99.3566 133.019C110.092 128.484 119.364 121.066 126.146 111.588C132.927 102.111 136.955 90.9412 137.783 79.3162C139.506 63.2278 134.782 42.8662 126.716 18.6647L126.714 18.6627ZM40.7191 121.441C40.0466 122.272 39.1428 122.885 38.1219 123.202C37.101 123.52 36.009 123.527 34.984 123.223C33.959 122.919 33.0471 122.319 32.3637 121.497C31.6803 120.675 31.2561 119.668 31.1447 118.605C31.0334 117.542 31.2399 116.47 31.7381 115.524C32.2364 114.578 33.0039 113.801 33.9437 113.292C34.8835 112.782 35.9533 112.563 37.0178 112.662C38.0822 112.76 39.0935 113.173 39.9236 113.846C41.0355 114.748 41.7438 116.055 41.8929 117.479C42.0421 118.903 41.6199 120.328 40.7191 121.441ZM126.454 102.517C110.858 123.293 77.559 116.282 56.2089 117.29C56.2089 117.29 52.4241 117.513 48.6137 118.137C48.6137 118.137 50.0512 117.527 51.8885 116.832C66.882 111.613 73.9692 110.609 83.0768 105.922C100.225 97.2045 117.187 78.113 120.712 58.2674C114.188 77.3588 94.378 93.7761 76.346 100.444C63.9873 104.999 41.6604 109.435 41.6604 109.435L40.7605 108.953C25.57 101.568 25.1014 68.6687 52.7274 58.0586C64.8242 53.3995 76.3972 55.9575 89.4609 52.8402C103.411 49.5261 119.55 39.0755 126.118 25.4368C133.463 47.2556 142.312 81.4056 126.445 102.531L126.454 102.517Z" fill="#68BD45"/>
</svg>
