<svg width="60" height="60" viewBox="0 0 60 60" fill="none" xmlns="http://www.w3.org/2000/svg">
<path d="M31.7059 4.85156C44.4934 4.85156 54.956 15.3141 54.956 28.1017V31.7343C54.956 44.5219 44.4934 54.9844 31.7059 54.9844H28.0732C15.2857 54.9844 4.82312 44.5219 4.82312 31.7343V28.1017C4.82312 15.3141 15.2857 4.85156 28.0732 4.85156H31.7059ZM30.3466 17.452L30.0231 17.4516C27.3295 17.4516 24.6359 17.5406 24.6359 17.5406C20.7016 17.5406 17.5122 20.73 17.5122 24.6643C17.5122 24.6643 17.4304 26.9772 17.4236 29.4598L17.4231 29.7844C17.4231 32.5641 17.5122 35.4388 17.5122 35.4388C17.5122 39.3731 20.7016 42.5625 24.6359 42.5625C24.6359 42.5625 27.1543 42.6516 29.756 42.6516C32.5357 42.6516 35.4995 42.5625 35.4995 42.5625C39.4338 42.5625 42.5341 39.4622 42.5341 35.5279C42.5341 35.5279 42.6231 32.6855 42.6231 29.9626L42.6215 29.3235C42.6094 26.8805 42.534 24.5752 42.534 24.5752C42.534 20.6409 39.4337 17.5406 35.4994 17.5406C35.4994 17.5406 32.9349 17.4585 30.3466 17.452ZM30.0231 19.7195C32.2319 19.7195 35.064 19.7925 35.064 19.7925C38.2902 19.7925 40.2821 21.7845 40.2821 25.0106C40.2821 25.0106 40.3551 27.7943 40.3551 29.9784C40.3551 32.2113 40.2821 35.0924 40.2821 35.0924C40.2821 38.3185 38.2902 40.3104 35.064 40.3104C35.064 40.3104 32.5595 40.3718 30.3864 40.382L29.8041 40.3835C27.6707 40.3835 25.0713 40.3104 25.0713 40.3104C21.8452 40.3104 19.7642 38.2294 19.7642 35.0033C19.7642 35.0033 19.6911 32.1118 19.6911 29.8325C19.6911 27.6991 19.7642 25.0106 19.7642 25.0106C19.7642 21.7845 21.8452 19.7925 25.0713 19.7925C25.0713 19.7925 27.8143 19.7195 30.0231 19.7195ZM30.0231 23.5971C26.4584 23.5971 23.5686 26.4868 23.5686 30.0515C23.5686 33.6162 26.4584 36.5059 30.0231 36.5059C33.5878 36.5059 36.4775 33.6162 36.4775 30.0515C36.4775 26.4868 33.5878 23.5971 30.0231 23.5971ZM30.0231 25.8515C32.3427 25.8515 34.2231 27.7319 34.2231 30.0515C34.2231 32.3711 32.3427 34.2515 30.0231 34.2515C27.7035 34.2515 25.823 32.3711 25.823 30.0515C25.823 27.7319 27.7034 25.8515 30.0231 25.8515ZM36.7863 21.8059C35.925 21.8059 35.2268 22.5076 35.2268 23.3732C35.2268 24.2388 35.925 24.9404 36.7863 24.9404C37.6476 24.9404 38.3458 24.2388 38.3458 23.3732C38.3458 22.5076 37.6476 21.8059 36.7863 21.8059Z" fill="#0085FF"/>
</svg>
